<?xml version="1.0" encoding="UTF-8"?>
<svg version="1.1" xmlns="http://www.w3.org/2000/svg" width="1321" height="696">
<path d="M0 0 C1.57490456 -0.00262848 1.57490456 -0.00262848 3.18162537 -0.00531006 C6.64632838 -0.00970298 10.11098007 -0.00679657 13.57568359 -0.00341797 C16.00401825 -0.00409245 18.43235283 -0.00506367 20.86068726 -0.00631714 C25.95644777 -0.00779124 31.05219075 -0.00565137 36.14794922 -0.00097656 C42.62172685 0.00467801 49.09546262 0.00146723 55.56923866 -0.00454903 C60.59185082 -0.00819891 65.61445341 -0.00699522 70.63706589 -0.00442123 C73.02004374 -0.00376192 75.40302252 -0.00454487 77.7859993 -0.00690079 C89.15788332 -0.01566578 100.51242158 0.04103106 111.87402344 0.56347656 C112.69432352 0.60062712 113.5146236 0.63777767 114.35978127 0.676054 C142.45291118 2.13960601 168.13612855 10.74018083 187.69287109 31.63330078 C201.5237917 48.20380758 208.66147315 68.41786793 207.01831055 89.96972656 C205.24276884 107.47817684 198.83820034 122.20993898 187.26367188 135.42138672 C182.52196613 140.9152478 179.40903575 145.53451488 179.28662109 152.87939453 C180.61310582 156.93687723 182.09930426 158.35350932 185.34912109 161.12939453 C186.7876275 162.41994028 188.22503318 163.71171352 189.66162109 165.00439453 C191.8929803 166.98454111 194.12832088 168.94677781 196.42724609 170.84814453 C201.85034931 175.37451414 206.09860041 180.5028738 210.34912109 186.12939453 C210.88794922 186.79197266 211.42677734 187.45455078 211.98193359 188.13720703 C213.48666562 190.32981655 214.17486555 192.26982537 214.91162109 194.81689453 C215.54919086 197.14805728 215.54919086 197.14805728 216.34912109 199.12939453 C217.00912109 199.45939453 217.66912109 199.78939453 218.34912109 200.12939453 C226.59493723 224.71637183 223.85008745 253.81232027 212.43798828 276.97900391 C208.17422584 284.95750849 202.7183948 291.74913932 196.34912109 298.12939453 C195.66333984 298.82677734 194.97755859 299.52416016 194.27099609 300.24267578 C166.3638132 326.85785946 121.87258974 326.45933678 85.97177291 326.43097711 C83.23019122 326.42988801 80.48863168 326.43483729 77.74705487 326.43958253 C71.28162878 326.45055646 64.81626089 326.45117969 58.35083008 326.44506836 C51.71352117 326.43899122 45.07642223 326.45146137 38.43914908 326.47263843 C32.69252667 326.49028918 26.94597102 326.49625171 21.19932252 326.49300069 C17.78713701 326.49119875 14.37510263 326.49371719 10.96294212 326.50771523 C7.17117398 326.52007561 3.37989528 326.51329334 -0.41186523 326.50170898 C-1.52313782 326.50935272 -2.6344104 326.51699646 -3.77935791 326.52487183 C-10.72686903 326.47804842 -18.39578094 326.28277069 -23.65087891 321.19189453 C-27.84390649 312.54377514 -25.63335447 301.15665312 -24.84619141 291.89111328 C-24.76273972 290.85963165 -24.67928802 289.82815002 -24.5933075 288.76541138 C-24.41593625 286.57616518 -24.23657213 284.38707963 -24.05532837 282.19815063 C-23.58238036 276.47561915 -23.12688849 270.75169703 -22.67041016 265.02783203 C-22.53553444 263.34180626 -22.53553444 263.34180626 -22.39793396 261.62171936 C-21.69013873 252.73218583 -21.0381179 243.84098461 -20.46337891 234.94189453 C-20.35630615 233.32383911 -20.35630615 233.32383911 -20.24707031 231.6730957 C-19.05047575 212.61595114 -18.49008816 193.56590106 -18.48291016 174.47314453 C-18.47967773 172.386922 -18.47631238 170.30069966 -18.4728241 168.21447754 C-18.46690368 163.87849403 -18.46497676 159.54253023 -18.46557617 155.20654297 C-18.46565728 150.83605803 -18.45872657 146.46567825 -18.44506836 142.09521484 C-18.36804764 117.0290854 -18.49923546 92.11682155 -20.65087891 67.12939453 C-20.78210648 65.58989136 -20.78210648 65.58989136 -20.91598511 64.01928711 C-21.45140757 57.88215672 -22.06551726 51.75552509 -22.71337891 45.62939453 C-22.88906654 43.91590993 -23.06419427 42.20236782 -23.23876953 40.48876953 C-24.14655781 31.62576537 -24.14655781 31.62576537 -25.19458008 22.77856445 C-26.60589671 11.49180699 -26.60589671 11.49180699 -24.46337891 6.19189453 C-18.11131614 -1.03631483 -8.85407181 -0.01829269 0 0 Z M23.34912109 42.12939453 C20.44556228 46.92158884 19.97126314 51.07733814 19.9609375 56.60595703 C19.95568054 57.31749939 19.95042358 58.02904175 19.94500732 58.762146 C19.93190064 61.09312481 19.94051164 63.42340986 19.95068359 65.75439453 C19.94866016 67.38672007 19.94574649 69.01904473 19.94198608 70.65136719 C19.93757538 74.06405283 19.94395315 77.4765021 19.95800781 80.88916016 C19.97509908 85.25028298 19.96525114 89.61085181 19.94729042 93.97195435 C19.93641854 97.34012989 19.93991448 100.70817539 19.9476738 104.07635498 C19.94966641 105.68381822 19.94724972 107.2912935 19.94023514 108.89874268 C19.93256418 111.15042117 19.94430232 113.40121868 19.9609375 115.65283203 C19.96332428 116.93077637 19.96571106 118.2087207 19.96817017 119.52539062 C20.48745776 124.43813501 21.66152306 128.46216945 25.23622131 131.99371338 C33.51463095 136.44334884 44.34261149 135.42555698 53.44677734 135.39501953 C54.8900916 135.39637201 56.33340541 135.39831735 57.77671814 135.40081787 C60.78974785 135.40374839 63.80265814 135.39954333 66.81567383 135.39013672 C70.6223306 135.378814 74.4287057 135.3854612 78.23535252 135.3970089 C116.92353016 136.72410857 116.92353016 136.72410857 150.34912109 120.12939453 C160.57073927 108.45830196 162.21178312 95.22597991 161.34912109 80.12939453 C159.34975245 68.30959757 154.22474221 58.02905692 144.34521484 50.98876953 C126.45658343 39.61695324 105.87090275 39.97146135 85.38037109 39.96142578 C83.804321 39.95820114 82.22827119 39.95483623 80.65222168 39.95133972 C77.38158472 39.94541309 74.11097396 39.94349356 70.84033203 39.9440918 C66.66340611 39.9441942 62.48664718 39.93043341 58.30976105 39.91331959 C55.06859571 39.90218406 51.82747096 39.9001729 48.58628845 39.90070152 C47.04580601 39.89952795 45.50532229 39.89514146 43.96485901 39.88736916 C41.81483164 39.87751736 39.6651706 39.88046519 37.51513672 39.88647461 C36.29685181 39.88504959 35.07856689 39.88362457 33.82336426 39.88215637 C29.92756164 40.15939404 26.94032049 40.55272214 23.34912109 42.12939453 Z M22.84912109 178.50439453 C19.36810704 182.27549309 20.1941793 187.28763072 20.18798828 192.09545898 C20.18302338 193.01284851 20.17805847 193.93023804 20.17294312 194.87542725 C20.15832181 197.91451769 20.15151942 200.95355592 20.14599609 203.99267578 C20.14024448 206.1039378 20.13448674 208.2151998 20.12872314 210.32646179 C20.11821315 214.75581099 20.11237052 219.18514204 20.10888672 223.61450195 C20.10340298 229.28732547 20.0793774 234.95990884 20.05091476 240.63265705 C20.03228135 244.99499714 20.0270824 249.35727947 20.02555084 253.71965599 C20.02252522 255.81081645 20.01449977 257.90197591 20.00136566 259.99309731 C19.98429123 262.92063228 19.98618897 265.84758177 19.99267578 268.77514648 C19.983461 269.63718185 19.97424622 270.49921722 19.9647522 271.38737488 C19.99927046 276.36605755 20.5376363 279.84036797 23.34912109 284.12939453 C28.48121601 287.55079115 33.84046398 287.25713172 39.87304688 287.2746582 C40.96734009 287.27969612 40.96734009 287.27969612 42.08374023 287.28483582 C44.48732226 287.29430259 46.89083409 287.29628793 49.29443359 287.29736328 C50.98672513 287.30058289 52.6790164 287.30394747 54.37130737 287.30744934 C57.92365155 287.31343289 61.47597145 287.31529044 65.02832031 287.31469727 C68.63384065 287.3146165 72.2392326 287.32147691 75.84472656 287.33520508 C120.90856904 289.48206765 120.90856904 289.48206765 159.91552734 270.63330078 C171.79595915 257.79938327 175.92450642 242.39894584 175.34912109 225.12939453 C173.79989903 211.49070747 168.7177345 200.272898 158.34912109 191.12939453 C140.60838889 178.85060613 121.47047285 176.87781416 100.52099609 176.71533203 C98.95451936 176.69654225 97.38805191 176.67696365 95.82159424 176.65664673 C91.74240817 176.60589343 87.66318873 176.56600869 83.5838623 176.52850342 C79.44824117 176.48837641 75.31275827 176.43713917 71.17724609 176.38720703 C46.24273362 173.94602736 46.24273362 173.94602736 22.84912109 178.50439453 Z " fill="#000000" transform="translate(532.65087890625,356.87060546875)"/>
<path d="M0 0 C5.63210507 4.71525076 10.12810197 9.53414453 11.0234375 17.08203125 C11.12682098 24.97019067 10.30936064 30.27556886 4.921875 36.1875 C-2.11041215 42.83218077 -8.64878808 44.88613122 -18.26953125 44.67578125 C-24.30052807 44.19176494 -30.16199916 42.60772389 -36.04199219 41.24902344 C-76.70985227 32.03653479 -121.83511613 33.2769007 -162.625 41.1875 C-163.3878833 41.33292236 -164.1507666 41.47834473 -164.93676758 41.62817383 C-172.47876181 43.22793952 -180.67846551 45.79043677 -185.3125 52.25 C-187.44112008 59.2373585 -187.59577302 66.31501051 -187.54296875 73.55859375 C-187.54251053 74.60596207 -187.54205231 75.65333038 -187.5415802 76.73243713 C-187.53857776 78.9333714 -187.53075232 81.13430393 -187.51831055 83.33520508 C-187.50006981 86.67471995 -187.49780123 90.01395611 -187.49804688 93.35351562 C-187.49312955 95.50521069 -187.4873003 97.65690391 -187.48046875 99.80859375 C-187.47935593 100.79226425 -187.4782431 101.77593475 -187.47709656 102.78941345 C-187.85130359 117.30648938 -187.85130359 117.30648938 -182.3125 130.25 C-177.58738006 134.03009595 -172.61878844 135.36911553 -166.68478394 135.38803101 C-165.75976578 135.39348434 -164.83474762 135.39893768 -163.88169861 135.40455627 C-162.87385818 135.4055986 -161.86601776 135.40664093 -160.82763672 135.40771484 C-159.22688545 135.41533592 -159.22688545 135.41533592 -157.59379578 135.42311096 C-155.27536719 135.43381222 -152.95692828 135.44243336 -150.63848495 135.44923019 C-146.96402361 135.46102793 -143.28967933 135.48048465 -139.61526489 135.50234985 C-129.16737793 135.56392639 -118.71950233 135.61794774 -108.27148438 135.65136719 C-101.8801185 135.67236094 -95.48896519 135.70770512 -89.0977211 135.75212479 C-86.66660191 135.76625054 -84.2354451 135.77499945 -81.80428696 135.77817917 C-78.39387674 135.78311059 -74.98402617 135.80632795 -71.57373047 135.83349609 C-70.57803543 135.83048996 -69.58234039 135.82748383 -68.55647278 135.8243866 C-60.99684958 135.91341462 -54.0287283 137.06873557 -47.4375 140.9375 C-41.95682333 146.90176579 -40.682055 152.42689431 -40.99609375 160.48046875 C-41.60181877 165.78243217 -43.38356898 168.36145728 -47.1875 172 C-55.8020534 178.20247845 -66.35784523 177.41010109 -76.56640625 177.33178711 C-77.52570038 177.32872055 -78.48499451 177.32565399 -79.47335815 177.32249451 C-81.53521586 177.31539725 -83.59706684 177.30603861 -85.65890503 177.29459953 C-88.93089245 177.27704386 -92.20282995 177.26685826 -95.47485352 177.25868225 C-104.77071848 177.23437176 -114.06651568 177.19869908 -123.36230469 177.15405273 C-129.06785645 177.12716154 -134.77336997 177.11019141 -140.47897339 177.09918404 C-142.64136168 177.09300942 -144.80374282 177.08304882 -146.96609497 177.06910515 C-149.99697653 177.04972724 -153.02765825 177.04297076 -156.05859375 177.03881836 C-156.93683807 177.03005676 -157.8150824 177.02129517 -158.71994019 177.01226807 C-170.44822489 176.97432844 -170.44822489 176.97432844 -180.875 181.5625 C-185.69416279 186.8759359 -185.71726146 192.13167073 -185.9375 199 C-185.97472168 200.03261963 -186.01194336 201.06523926 -186.05029297 202.12915039 C-186.42752081 214.6445967 -186.41979227 227.16744657 -186.4375 239.6875 C-186.44151825 241.31564636 -186.44151825 241.31564636 -186.44561768 242.97668457 C-186.45150534 246.12902096 -186.44972571 249.28125657 -186.4453125 252.43359375 C-186.44728638 253.3745842 -186.44926025 254.31557465 -186.45129395 255.28507996 C-186.81694225 268.1660226 -186.81694225 268.1660226 -181.3125 279.25 C-176.52845307 282.99340833 -172.19455731 284.32160001 -166.375 285.5 C-165.21581055 285.75910156 -165.21581055 285.75910156 -164.03320312 286.0234375 C-159.34932895 287.02118584 -155.09103933 287.32476202 -150.3125 287.25 C-149.9825 287.58 -149.6525 287.91 -149.3125 288.25 C-115.45384698 293.31651675 -79.27405349 291.02047439 -45.3125 288.25 C-44.12495117 288.15396484 -42.93740234 288.05792969 -41.71386719 287.95898438 C-40.54758789 287.86423828 -39.38130859 287.76949219 -38.1796875 287.671875 C-37.04942139 287.58019043 -35.91915527 287.48850586 -34.75463867 287.39404297 C-32.68132256 287.2226534 -30.6084891 287.04524213 -28.53637695 286.85986328 C-15.53128929 285.73508671 -2.51889406 284.76554268 8.09375 293.66015625 C11.91794523 297.47497846 12.85803153 300.99673304 13.0625 306.25 C12.86207342 312.06237086 11.16820195 315.52918422 7.375 319.9375 C-0.83024426 326.99782646 -10.00067115 326.7417337 -20.3125 326.25 C-26.39298254 325.78797213 -32.44639219 325.03743437 -38.5 324.3125 C-58.62965127 321.92046319 -78.48131198 321.09555097 -98.75 321.1875 C-100.7011707 321.19253507 -102.65234269 321.19709436 -104.60351562 321.20117188 C-108.84466419 321.21085096 -113.08576937 321.22493622 -117.32688904 321.24327087 C-119.3220825 321.25003247 -121.31729509 321.25 -123.3125 321.25 C-124.20203369 321.41564453 -125.09156738 321.58128906 -126.00805664 321.75195312 C-130.10869968 322.3700035 -134.04640796 322.29047811 -138.18359375 322.21875 C-149.95761916 322.11980804 -161.63602719 322.92071184 -173.375 323.75 C-196.51165661 325.3816298 -196.51165661 325.3816298 -207.87109375 325.53125 C-208.62648941 325.55070679 -209.38188507 325.57016357 -210.16017151 325.59020996 C-216.42239779 325.60617971 -220.74585083 323.8833222 -226.0625 320.5 C-230.08261128 316.47988872 -231.46987186 312.17641862 -231.640625 306.61328125 C-231.63134438 304.92951168 -231.60470956 303.245766 -231.5625 301.5625 C-231.55154297 300.67691406 -231.54058594 299.79132813 -231.52929688 298.87890625 C-231.4343362 293.23081036 -231.10528962 287.63665827 -230.53515625 282.015625 C-230.13936339 277.09946102 -230.23385992 272.1781114 -230.3125 267.25 C-229.6525 267.25 -228.9925 267.25 -228.3125 267.25 C-228.32410156 266.3621582 -228.33570313 265.47431641 -228.34765625 264.55957031 C-228.4111473 255.31481952 -228.20950488 246.09821346 -227.875 236.859375 C-225.86387068 180.80199034 -224.0163985 124.23465343 -228.3125 68.25 C-228.4424821 66.51906263 -228.57218913 64.78810458 -228.70166016 63.05712891 C-228.83877745 61.23208961 -228.97598565 59.40705714 -229.11328125 57.58203125 C-229.18140518 56.67543259 -229.24952911 55.76883392 -229.31971741 54.83476257 C-229.64813952 50.4877765 -229.9853248 46.14196695 -230.34692383 41.79760742 C-232.69745746 13.05424434 -232.69745746 13.05424434 -228.3125 6.25 C-224.27639446 1.84697578 -219.04112625 0.35898412 -213.3125 -0.75 C-209.10276065 -0.84857086 -204.99531009 -0.45138238 -200.8125 0 C-198.67732115 0.20560981 -196.54189602 0.40867574 -194.40625 0.609375 C-193.33822647 0.7103952 -192.27020294 0.81141541 -191.16981506 0.91549683 C-177.30489743 2.11785102 -163.47546888 2.40128297 -149.56640625 2.3828125 C-147.73518359 2.38348877 -145.90396101 2.38446147 -144.07273865 2.38571167 C-140.27187224 2.38717085 -136.47102962 2.38509045 -132.67016602 2.38037109 C-127.82677369 2.37464616 -122.98343648 2.37798156 -118.14004612 2.38394356 C-114.37287487 2.38757328 -110.6057165 2.38640002 -106.83854485 2.38381577 C-105.05296764 2.38315464 -103.26738921 2.38394601 -101.48181343 2.38629532 C-88.91964573 2.40076913 -88.91964573 2.40076913 -76.39712524 1.47361755 C-73.63407616 1.17722554 -70.90174251 1.15143841 -68.125 1.1875 C-67.20332031 1.19652344 -66.28164062 1.20554687 -65.33203125 1.21484375 C-64.33236328 1.23224609 -64.33236328 1.23224609 -63.3125 1.25 C-62.9825 0.59 -62.6525 -0.07 -62.3125 -0.75 C-59.7421875 -1.05859375 -59.7421875 -1.05859375 -56.1875 -1.1875 C-48.25825301 -1.55719634 -40.46213693 -2.58834836 -32.61083984 -3.73413086 C-21.05362178 -5.35326287 -10.58156735 -5.590262 0 0 Z " fill="#000000" transform="translate(1294.3125,356.75)"/>
<path d="M0 0 C1.83411834 0.63835233 1.83411834 0.63835233 3.73828125 -0.58203125 C3.73828125 0.40796875 3.73828125 1.39796875 3.73828125 2.41796875 C4.29515625 2.66546875 4.85203125 2.91296875 5.42578125 3.16796875 C12.84061851 7.17598889 17.07995433 13.56263695 19.77709961 21.45947266 C21.05402982 26.08388335 21.22713119 30.71172481 21.44921875 35.484375 C21.55817742 37.49806061 21.66740073 39.51173192 21.77685547 41.52539062 C21.83129822 42.57782959 21.88574097 43.63026855 21.9418335 44.71459961 C26.21775549 126.16566193 44.84602733 202.04278495 68.03309631 279.95489502 C74.91523586 303.08040321 81.73627817 326.22379135 88.36425781 349.42358398 C89.26471759 352.57292947 90.16946907 355.72102518 91.07421875 358.86914062 C91.66041242 360.91789547 92.24636022 362.96672069 92.83203125 365.015625 C93.09657104 365.93432877 93.36111084 366.85303253 93.63366699 367.79957581 C100.67471521 392.53064258 100.67471521 392.53064258 95.0546875 403.3203125 C90.35385835 410.81095123 85.5068918 415.3339492 76.73828125 417.41796875 C68.62526435 418.48579397 62.03905739 416.65645513 55.17578125 412.35546875 C43.17768523 403.13244256 38.1315458 385.95679173 33.30078125 372.23046875 C32.94636963 371.22604736 32.59195801 370.22162598 32.22680664 369.18676758 C31.90188232 368.23825928 31.57695801 367.28975098 31.2421875 366.3125 C30.95158447 365.46534424 30.66098145 364.61818848 30.36157227 363.74536133 C29.73828125 361.41796875 29.73828125 361.41796875 29.73828125 357.41796875 C29.07828125 357.08796875 28.41828125 356.75796875 27.73828125 356.41796875 C27.1882782 354.48904419 27.1882782 354.48904419 26.76049805 351.98876953 C25.79799249 346.70818723 24.62449728 341.50626556 23.3828125 336.28515625 C22.92367011 334.33888526 22.46460745 332.39259547 22.00561523 330.44628906 C21.7678537 329.44069946 21.53009216 328.43510986 21.28512573 327.39904785 C15.05153408 301.0326364 15.05153408 301.0326364 12.52734375 289.31640625 C12.36503769 288.56362396 12.20273163 287.81084167 12.0355072 287.0352478 C11.2942646 283.58416249 10.5634478 280.13118662 9.8449707 276.67529297 C9.46538208 274.88502686 9.46538208 274.88502686 9.078125 273.05859375 C8.86534912 272.03282227 8.65257324 271.00705078 8.43334961 269.95019531 C7.82198084 267.20262302 7.82198084 267.20262302 5.73828125 264.41796875 C-0.74482329 262.62005861 -6.98132507 264.03922471 -13.51171875 265.10546875 C-15.93357358 265.48190061 -18.35544919 265.85819885 -20.77734375 266.234375 C-22.63456055 266.52852295 -22.63456055 266.52852295 -24.52929688 266.82861328 C-115.97287125 281.26770201 -115.97287125 281.26770201 -141.29296875 265.85546875 C-146.6881572 261.9161248 -150.07509401 257.18909211 -151.91796875 250.75 C-152.74087279 245.16734415 -151.16449906 240.88498675 -148.26171875 236.16796875 C-138.64529602 226.01573361 -123.18181062 226.07421984 -110.26171875 225.35546875 C-108.83404418 225.27046249 -107.40639144 225.18508894 -105.97875977 225.09936523 C-97.38824916 224.5945106 -88.8005253 224.24801391 -80.19921875 223.98046875 C-61.52268718 223.35611856 -42.71915046 221.84878958 -24.32421875 218.48046875 C-23.50912842 218.33504639 -22.69403809 218.18962402 -21.85424805 218.03979492 C-17.09331302 217.08720492 -13.14012442 215.5722442 -8.88842773 213.22045898 C-7.26171875 212.41796875 -7.26171875 212.41796875 -5.26171875 212.41796875 C-1.40759651 203.28736965 -1.84792589 194.10205646 -2.26171875 184.41796875 C-2.32552734 182.87206055 -2.32552734 182.87206055 -2.390625 181.29492188 C-3.06918546 166.46228625 -4.57131053 151.84324327 -6.76171875 137.16796875 C-6.86922455 136.43270966 -6.97673035 135.69745056 -7.0874939 134.93991089 C-7.39478542 132.86297265 -7.71585646 130.78874242 -8.04296875 128.71484375 C-8.22923828 127.52213867 -8.41550781 126.32943359 -8.60742188 125.10058594 C-8.82333984 124.21532227 -9.03925781 123.33005859 -9.26171875 122.41796875 C-9.92171875 122.08796875 -10.58171875 121.75796875 -11.26171875 121.41796875 C-11.22602783 120.41950928 -11.19033691 119.4210498 -11.15356445 118.39233398 C-11.26409663 114.33058832 -11.95668466 110.72646444 -12.9921875 106.828125 C-13.17901093 106.10245331 -13.36583435 105.37678162 -13.55831909 104.62911987 C-14.17788223 102.24327407 -14.81239422 99.86176122 -15.44921875 97.48046875 C-15.66536835 96.6610379 -15.88151794 95.84160706 -16.10421753 94.99734497 C-20.19602226 79.53263396 -24.99243002 64.32521785 -30.05737305 49.15454102 C-30.46598068 47.92914108 -30.46598068 47.92914108 -30.88284302 46.6789856 C-31.39242422 45.15568173 -31.9051996 43.63344097 -32.42184448 42.11251831 C-35.71261133 32.32094429 -36.92466623 23.46564216 -32.58203125 13.80859375 C-29.07874242 7.46536071 -24.69680145 2.69961896 -17.8671875 0.03125 C-12.17266703 -1.30913938 -5.68795987 -1.46374097 0 0 Z " fill="#000000" transform="translate(393.26171875,264.58203125)"/>
<path d="M0 0 C10.72052289 7.68208592 16.9808882 17.24545776 19.78125 30.23046875 C22.06509049 44.63769583 17.54840285 59.11751366 13.375 72.8125 C13.09055023 73.75125977 13.09055023 73.75125977 12.800354 74.70898438 C0.93036269 113.75357073 -13.83498621 152.06225956 -30.75 189.1875 C-31.430625 190.69884521 -31.430625 190.69884521 -32.125 192.24072266 C-47.25008612 225.82576631 -64.18268164 258.33725669 -82.90820312 290.05273438 C-84.76224655 293.2083438 -86.59375047 296.37619129 -88.421875 299.546875 C-99.09614987 317.95283891 -110.75803028 335.61988119 -122.75 353.1875 C-123.37422852 354.10305664 -123.99845703 355.01861328 -124.64160156 355.96191406 C-132.35530728 367.21786531 -140.63296915 378.04134213 -148.95654297 388.85058594 C-150.49364895 390.85346893 -152.01871026 392.86428081 -153.53515625 394.8828125 C-159.40893102 402.65720707 -165.68981259 409.99807979 -172.11523438 417.31445312 C-174.22296784 419.729407 -176.29978417 422.16978814 -178.37573242 424.61206055 C-183.89393808 431.10073716 -189.55679454 437.42421833 -195.3515625 443.66699219 C-196.85287496 445.29935497 -198.33400132 446.94851883 -199.8125 448.6015625 C-200.31450928 449.15956543 -200.81651855 449.71756836 -201.33374023 450.29248047 C-202.3009878 451.36847752 -203.26422097 452.4481003 -204.22290039 453.53173828 C-205.35798201 454.78824724 -206.54949267 455.99334456 -207.75 457.1875 C-208.41 457.1875 -209.07 457.1875 -209.75 457.1875 C-210.0078125 457.77015625 -210.265625 458.3528125 -210.53125 458.953125 C-211.84834017 461.3677903 -213.30088384 463.00490177 -215.25 464.9375 C-215.8584375 465.55109375 -216.466875 466.1646875 -217.09375 466.796875 C-218.75 468.1875 -218.75 468.1875 -220.75 468.1875 C-220.75 468.8475 -220.75 469.5075 -220.75 470.1875 C-221.97265625 471.421875 -221.97265625 471.421875 -223.8125 472.9375 C-228.08339931 476.56129335 -232.17014583 480.35240687 -236.25 484.1875 C-243.95565901 491.40573303 -251.82829458 498.26972287 -260.0234375 504.9296875 C-262.50592616 506.98538728 -264.9183375 509.09271577 -267.3125 511.25 C-276.24930506 519.25851016 -285.8916726 526.37303489 -295.515625 533.52392578 C-297.81724022 535.23756281 -300.11180199 536.96037563 -302.40625 538.68359375 C-347.64272889 572.52044283 -347.64272889 572.52044283 -360.75 571.1875 C-363.6875 568.6875 -363.6875 568.6875 -365.75 566.1875 C-364.5091182 561.2504855 -363.202674 559.25553022 -358.90234375 556.55859375 C-357.91250488 555.92244141 -356.92266602 555.28628906 -355.90283203 554.63085938 C-354.84177246 553.96892578 -353.78071289 553.30699219 -352.6875 552.625 C-350.49316053 551.21157472 -348.30176928 549.79356234 -346.11328125 548.37109375 C-345.03127441 547.66839355 -343.94926758 546.96569336 -342.83447266 546.24169922 C-335.85996114 541.59680925 -329.30972186 536.3932983 -322.75 531.1875 C-321.83605469 530.47464844 -320.92210937 529.76179687 -319.98046875 529.02734375 C-309.68833468 520.92997818 -299.84230581 512.27271585 -290.19921875 503.41796875 C-288.05852552 501.46846981 -285.88648938 499.57046696 -283.6875 497.6875 C-279.73438401 494.25984933 -276.08622667 490.5598409 -272.4375 486.8125 C-270.3203378 484.74457413 -268.18299026 482.82301639 -265.9375 480.90234375 C-261.57275386 477.1179942 -257.6619537 472.99431696 -253.75 468.75 C-249.10595026 463.73859867 -244.41919491 458.80130258 -239.54833984 454.00878906 C-237.1292416 451.55881989 -234.88993907 448.97498556 -232.6484375 446.36328125 C-230.48254995 443.88097802 -228.24123043 441.47694855 -226 439.0625 C-221.72993014 434.3854492 -217.79595238 429.52591701 -213.92456055 424.51660156 C-210.82530308 420.5174896 -207.616282 416.64360731 -204.3125 412.8125 C-194.13997175 400.93850394 -185.19338489 388.10877357 -176.24121094 375.30664062 C-174.780706 373.2311359 -173.30374362 371.16853991 -171.8203125 369.109375 C-155.47574906 346.36072184 -140.87300295 322.24798074 -127.3125 297.75 C-126.84561768 296.90937012 -126.37873535 296.06874023 -125.89770508 295.20263672 C-125.26964966 294.05239014 -125.26964966 294.05239014 -124.62890625 292.87890625 C-124.2635376 292.21060791 -123.89816895 291.54230957 -123.52172852 290.85375977 C-122.60991218 289.19108212 -122.60991218 289.19108212 -122.75 287.1875 C-121.75036383 286.1871363 -120.75029451 285.18720541 -119.75 284.1875 C-118.85420063 282.71267469 -118.01521121 281.20263159 -117.21875 279.671875 C-116.74381104 278.7629248 -116.26887207 277.85397461 -115.77954102 276.91748047 C-115.27479248 275.93408691 -114.77004395 274.95069336 -114.25 273.9375 C-113.71882568 272.90898926 -113.18765137 271.88047852 -112.64038086 270.82080078 C-107.11248708 260.05064158 -101.84326645 249.1692641 -96.75 238.1875 C-96.24355957 237.09759766 -95.73711914 236.00769531 -95.21533203 234.88476562 C-86.3020916 215.60429355 -78.30758434 196.03447544 -70.75 176.1875 C-70.28916016 174.9814209 -69.82832031 173.7753418 -69.35351562 172.53271484 C-63.13963153 156.17931403 -57.47987051 139.65305641 -51.9375 123.0625 C-51.62266663 122.12176636 -51.30783325 121.18103271 -50.98345947 120.21179199 C-46.66173325 107.27292907 -42.59662472 94.27541687 -38.75 81.1875 C-39.69311035 80.88207275 -40.6362207 80.57664551 -41.60791016 80.26196289 C-50.9364426 77.0719962 -58.41429744 69.9784151 -63.2890625 61.515625 C-69.56558642 48.52211934 -70.42735247 35.83702301 -65.75 22.1875 C-60.0811129 9.84933396 -52.10437975 0.94255563 -39.3125 -4.25 C-25.68436085 -9.25671339 -12.25045073 -7.6926231 0 0 Z " fill="#F68631" transform="translate(367.75,108.8125)"/>
<path d="M0 0 C7.35036187 6.91478487 10.50784645 14.24019862 11.734375 24.171875 C11.85347436 29.10731266 11.64524838 34.02011604 11.41943359 38.94946289 C11.36339696 40.37032173 11.30860256 41.79123005 11.25498009 43.21218204 C11.14390856 46.12294734 11.02714082 49.03339429 10.90569305 51.94374466 C10.64649537 58.22726454 10.45379985 64.512875 10.25634766 70.79858398 C10.17703529 73.24089589 10.09755491 75.68320234 10.01791382 78.12550354 C8.87393269 113.58102554 8.012991 149.03979831 7.25417447 184.50544965 C7.12378251 190.58962595 6.98988229 196.67372137 6.85515535 202.75780302 C6.70619489 209.48651063 6.55912214 216.2152581 6.41304398 222.94402885 C6.3521687 225.74784958 6.29073901 228.55165726 6.22883224 231.3554554 C5.8404134 248.25527548 5.8404134 248.25527548 5.63134766 265.15795898 C5.62430817 266.22860092 5.61726868 267.29924286 5.61001587 268.40232849 C5.80186033 272.6748105 6.4253816 276.52350109 8.734375 280.171875 C19.63096501 288.67121521 36.57533073 287.26068745 49.734375 287.171875 C49.734375 287.501875 49.734375 287.831875 49.734375 288.171875 C60.294375 288.171875 70.854375 288.171875 81.734375 288.171875 C81.734375 287.841875 81.734375 287.511875 81.734375 287.171875 C83.20970703 287.22408203 83.20970703 287.22408203 84.71484375 287.27734375 C101.01012242 287.66793622 116.56048117 285.16829443 132.28125 281.03125 C141.02099826 278.85619953 148.83046835 278.26895744 157.0859375 282.328125 C163.24435873 286.03553577 168.06475261 291.15276476 170.37109375 298.0859375 C171.60800298 305.18819052 171.65776875 312.17821026 167.9375 318.4921875 C163.53145712 324.64348113 158.38533626 328.23028632 150.93359375 329.46875 C142.9418672 330.55245015 135.4488801 329.55302635 127.546875 328.421875 C126.07147388 328.22544773 124.59580157 328.03104739 123.11987305 327.83862305 C120.25192129 327.46292262 117.38523406 327.07949764 114.51953125 326.68701172 C96.0389474 324.17191678 77.63711874 323.1144749 58.984375 323.046875 C58.08485107 323.04220215 57.18532715 323.0375293 56.25854492 323.03271484 C55.4307251 323.03480957 54.60290527 323.0369043 53.75 323.0390625 C53.02071289 323.04019043 52.29142578 323.04131836 51.54003906 323.04248047 C49.63251297 323.06358156 49.63251297 323.06358156 47.734375 324.171875 C45.8281314 324.2455249 43.91926912 324.25536432 42.01171875 324.234375 C40.8424585 324.22599609 39.67319824 324.21761719 38.46850586 324.20898438 C37.21561768 324.19673828 35.96272949 324.18449219 34.671875 324.171875 C26.81445679 324.12841747 19.01052963 324.10294039 11.171875 324.671875 C3.67217708 325.1859672 -3.8113327 325.35372729 -11.328125 325.421875 C-12.48320557 325.44314453 -13.63828613 325.46441406 -14.82836914 325.48632812 C-22.69630422 325.51846323 -28.35516877 324.69194679 -35.078125 320.359375 C-40.89688605 314.54061395 -40.94480303 308.00017563 -41.265625 300.171875 C-41.18698082 295.98648157 -40.88867176 291.83248627 -40.55859375 287.66015625 C-40.38287431 285.21795516 -40.20743084 282.7757342 -40.03222656 280.33349609 C-39.93752075 279.05754578 -39.84281494 277.78159546 -39.74523926 276.46697998 C-39.23993325 269.5777776 -38.77926254 262.68565136 -38.32421875 255.79296875 C-38.27769291 255.08903236 -38.23116707 254.38509598 -38.18323135 253.65982819 C-35.73629714 216.45079902 -35.06695087 179.23665597 -34.96235657 141.95786285 C-34.95330628 139.2878547 -34.9392746 136.6179158 -34.9239502 133.94793701 C-34.74823013 100.42131631 -36.48054517 67.47832305 -43.953125 34.671875 C-46.16969463 24.54423366 -48.1711035 13.76673164 -43.265625 4.171875 C-42.605625 3.181875 -41.945625 2.191875 -41.265625 1.171875 C-40.605625 1.171875 -39.945625 1.171875 -39.265625 1.171875 C-38.935625 0.181875 -38.605625 -0.808125 -38.265625 -1.828125 C-25.59713359 -10.08292354 -11.80653439 -9.52665188 0 0 Z " fill="#000000" transform="translate(851.265625,356.828125)"/>
<path d="M0 0 C11.87664153 0.95779367 22.05801812 5.79236646 30.0078125 14.703125 C37.04436366 24.06556546 39.07000913 33.7195379 37.875 45.3125 C35.76027103 55.89944505 30.33443528 65.49754244 21.4375 71.8125 C19.94157948 72.68976864 18.42071191 73.52627283 16.875 74.3125 C16.21242188 74.65023437 15.54984375 74.98796875 14.8671875 75.3359375 C6.37193873 78.85678205 -5.21033513 78.8310858 -13.75 75.5625 C-17.44589976 73.80431653 -20.83744517 71.75905243 -24.125 69.3125 C-24.929375 68.73113281 -25.73375 68.14976563 -26.5625 67.55078125 C-33.39086094 61.58637452 -37.67390195 52.08369089 -38.37109375 43.1640625 C-38.79293797 31.37799054 -35.83768121 21.37918524 -28.125 12.3125 C-19.77642166 4.35772252 -11.31378392 1.13137839 0 0 Z " fill="#F68631" transform="translate(403.125,8.6875)"/>
<path d="M0 0 C1.1484375 1.67285156 1.1484375 1.67285156 2 4 C1.1640625 6.45996094 1.1640625 6.45996094 -0.375 9.234375 C-0.94105957 10.27126465 -1.50711914 11.3081543 -2.09033203 12.37646484 C-2.72052246 13.48973145 -3.35071289 14.60299805 -4 15.75 C-4.64673421 16.9168916 -5.29239053 18.08438119 -5.93701172 19.25244141 C-7.93164633 22.85009534 -9.96063605 26.42755038 -12 30 C-12.61133789 31.0715332 -13.22267578 32.14306641 -13.85253906 33.24707031 C-21.70768507 46.94510058 -29.83281348 60.4862766 -38 74 C-38.96032821 70.95658596 -39.11976196 70.27572208 -37.78515625 67.203125 C-36.93244141 65.74132812 -36.93244141 65.74132812 -36.0625 64.25 C-35.49660156 63.26515625 -34.93070312 62.2803125 -34.34765625 61.265625 C-33.68056641 60.14414062 -33.68056641 60.14414062 -33 59 C-32.34 59 -31.68 59 -31 59 C-30.73445313 58.29488281 -30.46890625 57.58976562 -30.1953125 56.86328125 C-28.93501033 53.84432214 -27.46042006 51.04814924 -25.875 48.1875 C-25.33617187 47.21167969 -24.79734375 46.23585938 -24.2421875 45.23046875 C-23.83226562 44.49441406 -23.42234375 43.75835937 -23 43 C-22.34 43 -21.68 43 -21 43 C-20.90332031 42.29359375 -20.80664062 41.5871875 -20.70703125 40.859375 C-19.8811281 37.51925838 -18.49387401 35.17423715 -16.6875 32.25 C-13.70933915 27.2986544 -11.17481876 22.34924367 -9 17 C-8.34 17 -7.68 17 -7 17 C-6.87496094 16.4328125 -6.74992187 15.865625 -6.62109375 15.28125 C-5.96902269 12.8862217 -5.08766815 10.75923848 -4.0625 8.5 C-3.72347656 7.7471875 -3.38445312 6.994375 -3.03515625 6.21875 C-2.05894873 4.12635049 -1.04374792 2.05941293 0 0 Z " fill="#F28326" transform="translate(309,348)"/>
<path d="M0 0 C0.66 0 1.32 0 2 0 C-0.0299163 4.28074391 -2.72018808 7.85417311 -5.5625 11.625 C-6.0989917 12.33922119 -6.6354834 13.05344238 -7.18823242 13.78930664 C-10.88757307 18.66172986 -14.78440493 23.25766789 -18.953125 27.73828125 C-22.19258827 31.31776452 -25.10200347 35.14221684 -28 39 C-28.8046875 37.34765625 -28.8046875 37.34765625 -29 35 C-27.43343733 32.9479816 -25.94036376 31.24069644 -24.125 29.4375 C-20.34725024 25.70952311 -20.34725024 25.70952311 -18 21 C-17.34 21 -16.68 21 -16 21 C-16 20.34 -16 19.68 -16 19 C-14.68 18.67 -13.36 18.34 -12 18 C-11.91492188 17.26910156 -11.82984375 16.53820312 -11.7421875 15.78515625 C-10.84898686 12.43330331 -9.5002622 10.93892082 -7.125 8.4375 C-5.06980303 6.24958736 -3.11722926 4.16350397 -1.3671875 1.72265625 C-0.91601562 1.15417969 -0.46484375 0.58570313 0 0 Z " fill="#F18224" transform="translate(220,492)"/>
<path d="M0 0 C0.99 0 1.98 0 3 0 C1.74794968 3.37711013 0.32937353 6.2309685 -1.72265625 9.1875 C-2.25737549 9.96311279 -2.79209473 10.73872559 -3.34301758 11.5378418 C-3.91044678 12.350354 -4.47787598 13.16286621 -5.0625 14 C-5.64088623 14.83635986 -6.21927246 15.67271973 -6.81518555 16.53442383 C-8.53927057 19.02588308 -10.26947909 21.5130087 -12 24 C-12.95376709 25.3784622 -13.90694813 26.7573302 -14.859375 28.13671875 C-16.90187201 31.09419471 -18.94917231 34.04829193 -21 37 C-21.6484375 35.22265625 -21.6484375 35.22265625 -22 33 C-21.0390625 31.18359375 -21.0390625 31.18359375 -19.625 29.4375 C-17.80605026 27.15619153 -16.94649117 25.83947352 -16 23 C-15.01446953 21.98573687 -14.01183306 20.98802523 -13 20 C-11.78272593 18.37606421 -10.59714325 16.72807832 -9.4375 15.0625 C-8.83808594 14.20785156 -8.23867187 13.35320312 -7.62109375 12.47265625 C-6.23512783 10.35864077 -5.06661633 8.28712258 -4 6 C-3.34 6 -2.68 6 -2 6 C-1.855625 5.195625 -1.71125 4.39125 -1.5625 3.5625 C-1 1 -1 1 0 0 Z " fill="#F18224" transform="translate(257,438)"/>
<path d="M0 0 C0.66 0 1.32 0 2 0 C0.4719611 5.09882455 -1.71036856 9.65665659 -4.125 14.375 C-4.49753906 15.11105469 -4.87007813 15.84710938 -5.25390625 16.60546875 C-6.1656122 18.40550358 -7.08229932 20.20301402 -8 22 C-8.93423645 18.98968256 -9.04449911 18.13349732 -8 15 C-7.34 15 -6.68 15 -6 15 C-5.896875 14.319375 -5.79375 13.63875 -5.6875 12.9375 C-4.57475752 8.18305487 -2.7032864 4.0549296 0 0 Z " fill="#F08124" transform="translate(320,328)"/>
<path d="M0 0 C0.99 0.33 1.98 0.66 3 1 C-2.94 8.92 -2.94 8.92 -9 17 C-9.66 16.34 -10.32 15.68 -11 15 C-9.7260411 12.96166576 -8.38938077 10.96147874 -7 9 C-6.34 9 -5.68 9 -5 9 C-4.5978125 7.6078125 -4.5978125 7.6078125 -4.1875 6.1875 C-3.08851629 3.23759634 -2.37581439 1.94384814 0 0 Z " fill="#EF8223" transform="translate(232,475)"/>
<path d="M0 0 C1.19309111 3.44440217 0.80482315 5.37627347 -0.43359375 8.765625 C-0.9121582 10.09980469 -0.9121582 10.09980469 -1.40039062 11.4609375 C-1.91375977 12.84152344 -1.91375977 12.84152344 -2.4375 14.25 C-2.77587891 15.18585938 -3.11425781 16.12171875 -3.46289062 17.0859375 C-4.29907822 19.39428634 -5.14504056 21.69855191 -6 24 C-6.33 24 -6.66 24 -7 24 C-7.125 17.25 -7.125 17.25 -6 15 C-5.34 15 -4.68 15 -4 15 C-3.94392578 14.12988281 -3.94392578 14.12988281 -3.88671875 13.2421875 C-3.46096333 8.18321136 -2.62861009 4.45720842 0 0 Z " fill="#F08527" transform="translate(376,191)"/>
<path d="M0 0 C0.66 0.33 1.32 0.66 2 1 C0.17778624 7.61242722 -2.05223604 13.80520671 -5 20 C-5.33 20 -5.66 20 -6 20 C-5.34715952 12.81875469 -4.05091266 6.07636898 0 0 Z " fill="#E77823" transform="translate(350,260)"/>
<path d="M0 0 C0.66 1.32 1.32 2.64 2 4 C-0.31 7.3 -2.62 10.6 -5 14 C-5.66 13.34 -6.32 12.68 -7 12 C-6.66226562 11.46890625 -6.32453125 10.9378125 -5.9765625 10.390625 C-5.53054688 9.68421875 -5.08453125 8.9778125 -4.625 8.25 C-4.18414062 7.55390625 -3.74328125 6.8578125 -3.2890625 6.140625 C-2.08119094 4.13482617 -1.01612263 2.10821704 0 0 Z " fill="#F18127" transform="translate(267,422)"/>
<path d="M0 0 C0.33 0 0.66 0 1 0 C0.43179252 5.45479185 -0.94637945 9.91059256 -3 15 C-3.33 15 -3.66 15 -4 15 C-4.59720137 9.17728663 -2.528243 5.0790596 0 0 Z " fill="#EA8028" transform="translate(356,246)"/>
<path d="M0 0 C0.99 0.66 1.98 1.32 3 2 C1.88200014 3.33920838 0.75538103 4.67122556 -0.375 6 C-1.00148438 6.7425 -1.62796875 7.485 -2.2734375 8.25 C-2.84320313 8.8275 -3.41296875 9.405 -4 10 C-4.66 10 -5.32 10 -6 10 C-4.6302836 6.00499382 -2.74277578 3.19990508 0 0 Z " fill="#F68F28" transform="translate(312,115)"/>
<path d="M0 0 C0.66 0 1.32 0 2 0 C0.63629701 2.99220268 -0.94908083 5.29026529 -3.125 7.75 C-3.93324219 8.67039062 -3.93324219 8.67039062 -4.7578125 9.609375 C-5.16773438 10.06828125 -5.57765625 10.5271875 -6 11 C-6.33 10.01 -6.66 9.02 -7 8 C-6.34 7.67 -5.68 7.34 -5 7 C-3.98133771 5.34467377 -2.98189187 3.67739862 -2 2 C-1.34 1.34 -0.68 0.68 0 0 Z " fill="#F18025" transform="translate(188,531)"/>
<path d="M0 0 C0.66 0.33 1.32 0.66 2 1 C1.54917531 2.46067199 1.08906463 3.91848032 0.625 5.375 C0.36976563 6.18710937 0.11453125 6.99921875 -0.1484375 7.8359375 C-1 10 -1 10 -3 12 C-2.67 9.03 -2.34 6.06 -2 3 C-1.34 3 -0.68 3 0 3 C0 2.01 0 1.02 0 0 Z " fill="#EE8125" transform="translate(335,295)"/>
<path d="M0 0 C0.66 0.33 1.32 0.66 2 1 C0.25 6.75 0.25 6.75 -2 9 C-2.125 5.625 -2.125 5.625 -2 2 C-1.34 1.34 -0.68 0.68 0 0 Z " fill="#EB8028" transform="translate(326,315)"/>
<path d="M0 0 C0.66 0 1.32 0 2 0 C1.01 2.97 0.02 5.94 -1 9 C-1.33 9 -1.66 9 -2 9 C-2.25 3.375 -2.25 3.375 0 0 Z " fill="#E97F29" transform="translate(330,307)"/>
<path d="M0 0 C0.66 0 1.32 0 2 0 C0.73058503 3.91402949 -0.51167694 5.79072873 -4 8 C-3.40312566 4.65750371 -2.26396123 2.53563658 0 0 Z " fill="#F18329" transform="translate(434,66)"/>
<path d="M0 0 C0.66 0 1.32 0 2 0 C1.01 2.97 0.02 5.94 -1 9 C-1.33 9 -1.66 9 -2 9 C-1.125 2.25 -1.125 2.25 0 0 Z " fill="#E47B22" transform="translate(342,280)"/>
<path d="M0 0 C0.33 0 0.66 0 1 0 C1 4.95 1 9.9 1 15 C0.67 15 0.34 15 0 15 C0 10.05 0 5.1 0 0 Z " fill="#000000" transform="translate(815,510)"/>
<path d="M0 0 C4.62 0 9.24 0 14 0 C14 0.33 14 0.66 14 1 C9.38 1 4.76 1 0 1 C0 0.67 0 0.34 0 0 Z " fill="#000000" transform="translate(902,644)"/>
<path d="M0 0 C0.33 0 0.66 0 1 0 C1 3.96 1 7.92 1 12 C0.67 12 0.34 12 0 12 C0 8.04 0 4.08 0 0 Z " fill="#000000" transform="translate(815,468)"/>
<path d="M0 0 C0.33 0.66 0.66 1.32 1 2 C-1.64 2 -4.28 2 -7 2 C-7 1.67 -7 1.34 -7 1 C-3.535 0.505 -3.535 0.505 0 0 Z " fill="#000000" transform="translate(1188,645)"/>
<path d="M0 0 C1.98 0 3.96 0 6 0 C6 0.33 6 0.66 6 1 C4.02 1 2.04 1 0 1 C0 0.67 0 0.34 0 0 Z " fill="#000000" transform="translate(1184,678)"/>
<path d="M0 0 C1.98 0 3.96 0 6 0 C6 0.33 6 0.66 6 1 C4.02 1 2.04 1 0 1 C0 0.67 0 0.34 0 0 Z " fill="#000000" transform="translate(925,644)"/>
<path d="M0 0 C1.98 0 3.96 0 6 0 C6 0.33 6 0.66 6 1 C4.02 1 2.04 1 0 1 C0 0.67 0 0.34 0 0 Z " fill="#000000" transform="translate(917,644)"/>
<path d="M0 0 C0.99 0.33 1.98 0.66 3 1 C3 1.66 3 2.32 3 3 C2.34 3 1.68 3 1 3 C0.67 2.01 0.34 1.02 0 0 Z " fill="#000000" transform="translate(970,637)"/>
<path d="M0 0 C1.65 0 3.3 0 5 0 C5 0.33 5 0.66 5 1 C3.35 1 1.7 1 0 1 C0 0.67 0 0.34 0 0 Z " fill="#000000" transform="translate(861,682)"/>
<path d="M0 0 C0.33 0 0.66 0 1 0 C1 1.65 1 3.3 1 5 C0.67 5 0.34 5 0 5 C0 3.35 0 1.7 0 0 Z " fill="#000000" transform="translate(814,549)"/>
<path d="M0 0 C0.33 0 0.66 0 1 0 C1 1.65 1 3.3 1 5 C0.67 5 0.34 5 0 5 C0 3.35 0 1.7 0 0 Z " fill="#000000" transform="translate(815,492)"/>
<path d="M0 0 C4 1 4 1 4 1 Z " fill="#000000" transform="translate(1089,683)"/>
<path d="M0 0 C1 4 1 4 1 4 Z " fill="#000000" transform="translate(492,651)"/>
<path d="M0 0 C1 4 1 4 1 4 Z " fill="#000000" transform="translate(509,612)"/>
<path d="M0 0 C1 4 1 4 1 4 Z " fill="#000000" transform="translate(860,500)"/>
<path d="M0 0 C1 4 1 4 1 4 Z " fill="#000000" transform="translate(815,484)"/>
<path d="M0 0 C4 1 4 1 4 1 Z " fill="#000000" transform="translate(577,398)"/>
<path d="M0 0 C0.33 0.99 0.66 1.98 1 3 C0.34 2.67 -0.32 2.34 -1 2 C-0.67 1.34 -0.34 0.68 0 0 Z " fill="#5F2F00" transform="translate(380,260)"/>
<path d="M0 0 C3 1 3 1 3 1 Z " fill="#000000" transform="translate(464,683)"/>
<path d="M0 0 C3 1 3 1 3 1 Z " fill="#000000" transform="translate(948,682)"/>
<path d="M0 0 C3 1 3 1 3 1 Z " fill="#000000" transform="translate(944,682)"/>
<path d="M0 0 C3 1 3 1 3 1 Z " fill="#000000" transform="translate(1195,678)"/>
<path d="" fill="#000000" transform="translate(0,0)"/>
<path d="M0 0 C3 1 3 1 3 1 Z " fill="#000000" transform="translate(1245,644)"/>
<path d="M0 0 C3 1 3 1 3 1 Z " fill="#000000" transform="translate(1146,644)"/>
<path d="" fill="#000000" transform="translate(0,0)"/>
<path d="" fill="#000000" transform="translate(0,0)"/>
<path d="" fill="#000000" transform="translate(0,0)"/>
<path d="" fill="#000000" transform="translate(0,0)"/>
<path d="" fill="#000000" transform="translate(0,0)"/>
<path d="M0 0 C0.66 0.66 1.32 1.32 2 2 C1.34 2 0.68 2 0 2 C0 1.34 0 0.68 0 0 Z " fill="#000000" transform="translate(398,530)"/>
<path d="" fill="#000000" transform="translate(0,0)"/>
<path d="" fill="#000000" transform="translate(0,0)"/>
<path d="M0 0 C0.99 0.495 0.99 0.495 2 1 C1.01 1.495 1.01 1.495 0 2 C0 1.34 0 0.68 0 0 Z " fill="#000000" transform="translate(737,463)"/>
<path d="M0 0 C3 1 3 1 3 1 Z " fill="#FF9B1C" transform="translate(268,427)"/>
<path d="M0 0 C3 1 3 1 3 1 Z " fill="#000000" transform="translate(587,398)"/>
<path d="M0 0 C3 1 3 1 3 1 Z " fill="#000000" transform="translate(571,398)"/>
<path d="" fill="#000000" transform="translate(0,0)"/>
<path d="M0 0 C3 1 3 1 3 1 Z " fill="#000000" transform="translate(1193,358)"/>
<path d="" fill="#FFA92A" transform="translate(0,0)"/>
<path d="M0 0 C3 1 3 1 3 1 Z " fill="#FFD415" transform="translate(398,87)"/>
<path d="" fill="#FFB81C" transform="translate(0,0)"/>
<path d="M0 0 C0.33 0.66 0.66 1.32 1 2 C0.34 1.67 -0.32 1.34 -1 1 C-0.67 0.67 -0.34 0.34 0 0 Z " fill="#FF7F00" transform="translate(396,5)"/>
<path d="M0 0 C2 1 2 1 2 1 Z " fill="#000000" transform="translate(843,683)"/>
<path d="M0 0 C2 1 2 1 2 1 Z " fill="#000000" transform="translate(653,683)"/>
<path d="M0 0 C2 1 2 1 2 1 Z " fill="#000000" transform="translate(1104,682)"/>
<path d="M0 0 C2 1 2 1 2 1 Z " fill="#000000" transform="translate(868,682)"/>
<path d="M0 0 C2 1 2 1 2 1 Z " fill="#000000" transform="translate(934,681)"/>
<path d="M0 0 C2 1 2 1 2 1 Z " fill="#000000" transform="translate(896,681)"/>
<path d="M0 0 C2 1 2 1 2 1 Z " fill="#000000" transform="translate(1135,680)"/>
<path d="M0 0 C2 1 2 1 2 1 Z " fill="#000000" transform="translate(813,677)"/>
<path d="" fill="#000000" transform="translate(0,0)"/>
<path d="" fill="#000000" transform="translate(0,0)"/>
<path d="M0 0 C2 1 2 1 2 1 Z " fill="#000000" transform="translate(1229,645)"/>
<path d="M0 0 C2 1 2 1 2 1 Z " fill="#000000" transform="translate(1164,645)"/>
<path d="M0 0 C2 1 2 1 2 1 Z " fill="#000000" transform="translate(896,642)"/>
<path d="M0 0 C2 1 2 1 2 1 Z " fill="#000000" transform="translate(898,639)"/>
<path d="" fill="#000000" transform="translate(0,0)"/>
<path d="" fill="#000000" transform="translate(0,0)"/>
<path d="" fill="#000000" transform="translate(0,0)"/>
<path d="" fill="#000000" transform="translate(0,0)"/>
<path d="" fill="#000000" transform="translate(0,0)"/>
<path d="" fill="#000000" transform="translate(0,0)"/>
<path d="" fill="#000000" transform="translate(0,0)"/>
<path d="" fill="#000000" transform="translate(0,0)"/>
<path d="" fill="#000000" transform="translate(0,0)"/>
<path d="M0 0 C2 1 2 1 2 1 Z " fill="#000000" transform="translate(414,599)"/>
<path d="M0 0 C2 1 2 1 2 1 Z " fill="#000000" transform="translate(991,583)"/>
<path d="" fill="#000000" transform="translate(0,0)"/>
<path d="" fill="#000000" transform="translate(0,0)"/>
<path d="" fill="#000000" transform="translate(0,0)"/>
<path d="" fill="#000000" transform="translate(0,0)"/>
<path d="M0 0 C2 1 2 1 2 1 Z " fill="#000000" transform="translate(991,567)"/>
<path d="" fill="#000000" transform="translate(0,0)"/>
<path d="" fill="#FFD42A" transform="translate(0,0)"/>
<path d="" fill="#000000" transform="translate(0,0)"/>
<path d="" fill="#000000" transform="translate(0,0)"/>
<path d="M0 0 C2 1 2 1 2 1 Z " fill="#000000" transform="translate(991,551)"/>
<path d="M0 0 C2 1 2 1 2 1 Z " fill="#000000" transform="translate(669,539)"/>
<path d="" fill="#000000" transform="translate(0,0)"/>
<path d="M0 0 C2 1 2 1 2 1 Z " fill="#000000" transform="translate(655,536)"/>
<path d="M0 0 C2 1 2 1 2 1 Z " fill="#000000" transform="translate(1170,535)"/>
<path d="M0 0 C2 1 2 1 2 1 Z " fill="#000000" transform="translate(627,535)"/>
<path d="M0 0 C2 1 2 1 2 1 Z " fill="#000000" transform="translate(559,535)"/>
<path d="" fill="#3F0000" transform="translate(0,0)"/>
<path d="" fill="#000000" transform="translate(0,0)"/>
<path d="" fill="#000000" transform="translate(0,0)"/>
<path d="" fill="#000000" transform="translate(0,0)"/>
<path d="M0 0 C2 1 2 1 2 1 Z " fill="#000000" transform="translate(991,519)"/>
<path d="" fill="#000000" transform="translate(0,0)"/>
<path d="M0 0 C2 1 2 1 2 1 Z " fill="#000000" transform="translate(991,511)"/>
<path d="" fill="#000000" transform="translate(0,0)"/>
<path d="" fill="#2A2A00" transform="translate(0,0)"/>
<path d="" fill="#2A2A00" transform="translate(0,0)"/>
<path d="M0 0 C2 1 2 1 2 1 Z " fill="#000000" transform="translate(349,484)"/>
<path d="" fill="#000000" transform="translate(0,0)"/>
<path d="M0 0 C2 1 2 1 2 1 Z " fill="#000000" transform="translate(991,471)"/>
<path d="" fill="#000000" transform="translate(0,0)"/>
<path d="M0 0 C2 1 2 1 2 1 Z " fill="#000000" transform="translate(991,463)"/>
<path d="" fill="#000000" transform="translate(0,0)"/>
<path d="M0 0 C2 1 2 1 2 1 Z " fill="#FFFF00" transform="translate(221,435)"/>
<path d="" fill="#000000" transform="translate(0,0)"/>
<path d="" fill="#000000" transform="translate(0,0)"/>
<path d="" fill="#000000" transform="translate(0,0)"/>
<path d="M0 0 C2 1 2 1 2 1 Z " fill="#000000" transform="translate(991,415)"/>
<path d="" fill="#000000" transform="translate(0,0)"/>
<path d="" fill="#000000" transform="translate(0,0)"/>
<path d="M0 0 C2 1 2 1 2 1 Z " fill="#000000" transform="translate(991,407)"/>
<path d="M0 0 C2 1 2 1 2 1 Z " fill="#000000" transform="translate(671,407)"/>
<path d="" fill="#000000" transform="translate(0,0)"/>
<path d="M0 0 C2 1 2 1 2 1 Z " fill="#000000" transform="translate(650,400)"/>
<path d="M0 0 C2 1 2 1 2 1 Z " fill="#000000" transform="translate(559,399)"/>
<path d="M0 0 C2 1 2 1 2 1 Z " fill="#000000" transform="translate(620,398)"/>
<path d="M0 0 C2 1 2 1 2 1 Z " fill="#000000" transform="translate(1224,394)"/>
<path d="M0 0 C2 1 2 1 2 1 Z " fill="#000000" transform="translate(1168,394)"/>
<path d="M0 0 C2 1 2 1 2 1 Z " fill="#FFD42A" transform="translate(292,387)"/>
<path d="M0 0 C2 1 2 1 2 1 Z " fill="#000000" transform="translate(991,383)"/>
<path d="" fill="#000000" transform="translate(0,0)"/>
<path d="" fill="#000000" transform="translate(0,0)"/>
<path d="M0 0 C2 1 2 1 2 1 Z " fill="#000000" transform="translate(648,356)"/>
<path d="M0 0 C2 1 2 1 2 1 Z " fill="#000000" transform="translate(1283,351)"/>
<path d="M0 0 C2 1 2 1 2 1 Z " fill="#000000" transform="translate(1263,351)"/>
<path d="M0 0 C2 1 2 1 2 1 Z " fill="#000000" transform="translate(991,351)"/>
<path d="" fill="#000000" transform="translate(0,0)"/>
<path d="" fill="#000000" transform="translate(0,0)"/>
<path d="" fill="#FFFF00" transform="translate(0,0)"/>
<path d="M0 0 C2 1 2 1 2 1 Z " fill="#000000" transform="translate(991,319)"/>
<path d="" fill="#FFFF00" transform="translate(0,0)"/>
<path d="M0 0 C2 1 2 1 2 1 Z " fill="#000000" transform="translate(374,263)"/>
<path d="M0 0 C2 1 2 1 2 1 Z " fill="#7F0000" transform="translate(387,262)"/>
<path d="M0 0 C2 1 2 1 2 1 Z " fill="#000000" transform="translate(991,247)"/>
<path d="M0 0 C2 1 2 1 2 1 Z " fill="#000000" transform="translate(991,239)"/>
<path d="" fill="#FFFF00" transform="translate(0,0)"/>
<path d="" fill="#000000" transform="translate(0,0)"/>
<path d="M0 0 C2 1 2 1 2 1 Z " fill="#000000" transform="translate(991,207)"/>
<path d="M0 0 C2 1 2 1 2 1 Z " fill="#000000" transform="translate(991,199)"/>
<path d="M0 0 C2 1 2 1 2 1 Z " fill="#FFD42A" transform="translate(326,191)"/>
<path d="M0 0 C2 1 2 1 2 1 Z " fill="#000000" transform="translate(991,175)"/>
<path d="M0 0 C2 1 2 1 2 1 Z " fill="#000000" transform="translate(991,167)"/>
<path d="" fill="#000000" transform="translate(0,0)"/>
<path d="" fill="#FFBF00" transform="translate(0,0)"/>
<path d="M0 0 C2 1 2 1 2 1 Z " fill="#000000" transform="translate(991,143)"/>
<path d="M0 0 C2 1 2 1 2 1 Z " fill="#000000" transform="translate(991,103)"/>
<path d="M0 0 C2 1 2 1 2 1 Z " fill="#FFBF00" transform="translate(341,100)"/>
<path d="M0 0 C2 1 2 1 2 1 Z " fill="#FFBF1F" transform="translate(337,100)"/>
<path d="M0 0 C2 1 2 1 2 1 Z " fill="#FF942A" transform="translate(395,8)"/>
<path d="" fill="#000000" transform="translate(0,0)"/>
<path d="" fill="#FFFF00" transform="translate(0,0)"/>
<path d="" fill="#000000" transform="translate(0,0)"/>
<path d="" fill="#000000" transform="translate(0,0)"/>
<path d="" fill="#000000" transform="translate(0,0)"/>
<path d="" fill="#000000" transform="translate(0,0)"/>
<path d="" fill="#000000" transform="translate(0,0)"/>
<path d="" fill="#000000" transform="translate(0,0)"/>
<path d="" fill="#000000" transform="translate(0,0)"/>
<path d="" fill="#000000" transform="translate(0,0)"/>
<path d="" fill="#000000" transform="translate(0,0)"/>
<path d="" fill="#000000" transform="translate(0,0)"/>
<path d="" fill="#000000" transform="translate(0,0)"/>
<path d="" fill="#000000" transform="translate(0,0)"/>
<path d="" fill="#000000" transform="translate(0,0)"/>
<path d="" fill="#000000" transform="translate(0,0)"/>
<path d="" fill="#000000" transform="translate(0,0)"/>
<path d="" fill="#000000" transform="translate(0,0)"/>
<path d="" fill="#000000" transform="translate(0,0)"/>
<path d="" fill="#000000" transform="translate(0,0)"/>
<path d="" fill="#000000" transform="translate(0,0)"/>
<path d="" fill="#000000" transform="translate(0,0)"/>
<path d="" fill="#000000" transform="translate(0,0)"/>
<path d="" fill="#000000" transform="translate(0,0)"/>
<path d="" fill="#000000" transform="translate(0,0)"/>
<path d="" fill="#000000" transform="translate(0,0)"/>
<path d="" fill="#000000" transform="translate(0,0)"/>
<path d="" fill="#000000" transform="translate(0,0)"/>
<path d="" fill="#000000" transform="translate(0,0)"/>
<path d="" fill="#000000" transform="translate(0,0)"/>
<path d="" fill="#000000" transform="translate(0,0)"/>
<path d="" fill="#000000" transform="translate(0,0)"/>
<path d="" fill="#000000" transform="translate(0,0)"/>
<path d="" fill="#000000" transform="translate(0,0)"/>
<path d="" fill="#FFFF00" transform="translate(0,0)"/>
<path d="" fill="#FFAA55" transform="translate(0,0)"/>
<path d="" fill="#000000" transform="translate(0,0)"/>
<path d="" fill="#000000" transform="translate(0,0)"/>
<path d="" fill="#000000" transform="translate(0,0)"/>
<path d="" fill="#000000" transform="translate(0,0)"/>
<path d="" fill="#FFFF00" transform="translate(0,0)"/>
<path d="" fill="#FFFF00" transform="translate(0,0)"/>
<path d="" fill="#000000" transform="translate(0,0)"/>
<path d="" fill="#000000" transform="translate(0,0)"/>
<path d="" fill="#FFFF00" transform="translate(0,0)"/>
<path d="" fill="#000000" transform="translate(0,0)"/>
<path d="" fill="#000000" transform="translate(0,0)"/>
<path d="" fill="#000000" transform="translate(0,0)"/>
<path d="" fill="#000000" transform="translate(0,0)"/>
<path d="" fill="#000000" transform="translate(0,0)"/>
<path d="" fill="#000000" transform="translate(0,0)"/>
<path d="" fill="#FFFF00" transform="translate(0,0)"/>
<path d="" fill="#000000" transform="translate(0,0)"/>
<path d="" fill="#000000" transform="translate(0,0)"/>
<path d="" fill="#FF7F00" transform="translate(0,0)"/>
<path d="" fill="#000000" transform="translate(0,0)"/>
<path d="" fill="#FFFF00" transform="translate(0,0)"/>
<path d="" fill="#000000" transform="translate(0,0)"/>
<path d="" fill="#FFFF00" transform="translate(0,0)"/>
<path d="" fill="#FFFF00" transform="translate(0,0)"/>
<path d="" fill="#000000" transform="translate(0,0)"/>
<path d="" fill="#000000" transform="translate(0,0)"/>
<path d="" fill="#000000" transform="translate(0,0)"/>
<path d="" fill="#000000" transform="translate(0,0)"/>
<path d="" fill="#FFFF00" transform="translate(0,0)"/>
<path d="" fill="#000000" transform="translate(0,0)"/>
<path d="" fill="#000000" transform="translate(0,0)"/>
<path d="" fill="#000000" transform="translate(0,0)"/>
<path d="" fill="#000000" transform="translate(0,0)"/>
<path d="" fill="#000000" transform="translate(0,0)"/>
<path d="" fill="#000000" transform="translate(0,0)"/>
<path d="" fill="#FFFF00" transform="translate(0,0)"/>
<path d="" fill="#000000" transform="translate(0,0)"/>
<path d="" fill="#000000" transform="translate(0,0)"/>
<path d="" fill="#000000" transform="translate(0,0)"/>
<path d="" fill="#000000" transform="translate(0,0)"/>
<path d="" fill="#000000" transform="translate(0,0)"/>
<path d="" fill="#000000" transform="translate(0,0)"/>
<path d="" fill="#000000" transform="translate(0,0)"/>
<path d="" fill="#000000" transform="translate(0,0)"/>
<path d="" fill="#000000" transform="translate(0,0)"/>
<path d="" fill="#FF7F3F" transform="translate(0,0)"/>
<path d="" fill="#000000" transform="translate(0,0)"/>
<path d="" fill="#000000" transform="translate(0,0)"/>
<path d="" fill="#000000" transform="translate(0,0)"/>
<path d="" fill="#000000" transform="translate(0,0)"/>
<path d="" fill="#000000" transform="translate(0,0)"/>
<path d="" fill="#000000" transform="translate(0,0)"/>
<path d="" fill="#FFFF00" transform="translate(0,0)"/>
<path d="" fill="#000000" transform="translate(0,0)"/>
<path d="" fill="#000000" transform="translate(0,0)"/>
<path d="" fill="#000000" transform="translate(0,0)"/>
<path d="" fill="#000000" transform="translate(0,0)"/>
<path d="" fill="#000000" transform="translate(0,0)"/>
<path d="" fill="#000000" transform="translate(0,0)"/>
<path d="" fill="#000000" transform="translate(0,0)"/>
<path d="" fill="#000000" transform="translate(0,0)"/>
<path d="" fill="#000000" transform="translate(0,0)"/>
<path d="" fill="#000000" transform="translate(0,0)"/>
<path d="" fill="#FFFF00" transform="translate(0,0)"/>
<path d="" fill="#FFFF00" transform="translate(0,0)"/>
<path d="" fill="#000000" transform="translate(0,0)"/>
<path d="" fill="#000000" transform="translate(0,0)"/>
<path d="" fill="#000000" transform="translate(0,0)"/>
<path d="" fill="#000000" transform="translate(0,0)"/>
<path d="" fill="#000000" transform="translate(0,0)"/>
<path d="" fill="#000000" transform="translate(0,0)"/>
<path d="" fill="#000000" transform="translate(0,0)"/>
<path d="" fill="#FFFF00" transform="translate(0,0)"/>
<path d="" fill="#000000" transform="translate(0,0)"/>
<path d="" fill="#000000" transform="translate(0,0)"/>
<path d="" fill="#000000" transform="translate(0,0)"/>
<path d="" fill="#FFFF00" transform="translate(0,0)"/>
<path d="" fill="#000000" transform="translate(0,0)"/>
<path d="" fill="#000000" transform="translate(0,0)"/>
<path d="" fill="#000000" transform="translate(0,0)"/>
<path d="" fill="#000000" transform="translate(0,0)"/>
<path d="" fill="#000000" transform="translate(0,0)"/>
<path d="" fill="#000000" transform="translate(0,0)"/>
<path d="" fill="#FFAA55" transform="translate(0,0)"/>
<path d="" fill="#FFFF00" transform="translate(0,0)"/>
<path d="" fill="#000000" transform="translate(0,0)"/>
<path d="" fill="#000000" transform="translate(0,0)"/>
<path d="" fill="#FFFF00" transform="translate(0,0)"/>
<path d="" fill="#000000" transform="translate(0,0)"/>
<path d="" fill="#000000" transform="translate(0,0)"/>
<path d="" fill="#FFFF00" transform="translate(0,0)"/>
<path d="" fill="#000000" transform="translate(0,0)"/>
<path d="" fill="#000000" transform="translate(0,0)"/>
<path d="" fill="#000000" transform="translate(0,0)"/>
<path d="" fill="#FFFF00" transform="translate(0,0)"/>
<path d="" fill="#000000" transform="translate(0,0)"/>
<path d="" fill="#FFFF00" transform="translate(0,0)"/>
<path d="" fill="#000000" transform="translate(0,0)"/>
<path d="" fill="#000000" transform="translate(0,0)"/>
<path d="" fill="#000000" transform="translate(0,0)"/>
<path d="" fill="#000000" transform="translate(0,0)"/>
<path d="" fill="#000000" transform="translate(0,0)"/>
<path d="" fill="#FFFF00" transform="translate(0,0)"/>
<path d="" fill="#FF7F00" transform="translate(0,0)"/>
<path d="" fill="#000000" transform="translate(0,0)"/>
<path d="" fill="#FFFF00" transform="translate(0,0)"/>
<path d="" fill="#000000" transform="translate(0,0)"/>
<path d="" fill="#000000" transform="translate(0,0)"/>
<path d="" fill="#000000" transform="translate(0,0)"/>
<path d="" fill="#000000" transform="translate(0,0)"/>
<path d="" fill="#FF7F00" transform="translate(0,0)"/>
<path d="" fill="#FFFF00" transform="translate(0,0)"/>
<path d="" fill="#000000" transform="translate(0,0)"/>
<path d="" fill="#000000" transform="translate(0,0)"/>
<path d="" fill="#000000" transform="translate(0,0)"/>
<path d="" fill="#FFFF00" transform="translate(0,0)"/>
<path d="" fill="#000000" transform="translate(0,0)"/>
<path d="" fill="#000000" transform="translate(0,0)"/>
<path d="" fill="#000000" transform="translate(0,0)"/>
<path d="" fill="#000000" transform="translate(0,0)"/>
<path d="" fill="#000000" transform="translate(0,0)"/>
<path d="" fill="#000000" transform="translate(0,0)"/>
<path d="" fill="#000000" transform="translate(0,0)"/>
<path d="" fill="#000000" transform="translate(0,0)"/>
<path d="" fill="#000000" transform="translate(0,0)"/>
<path d="" fill="#000000" transform="translate(0,0)"/>
<path d="" fill="#000000" transform="translate(0,0)"/>
<path d="" fill="#000000" transform="translate(0,0)"/>
<path d="" fill="#000000" transform="translate(0,0)"/>
<path d="" fill="#000000" transform="translate(0,0)"/>
<path d="" fill="#000000" transform="translate(0,0)"/>
<path d="" fill="#000000" transform="translate(0,0)"/>
<path d="" fill="#000000" transform="translate(0,0)"/>
<path d="" fill="#000000" transform="translate(0,0)"/>
<path d="" fill="#FFFF00" transform="translate(0,0)"/>
<path d="" fill="#000000" transform="translate(0,0)"/>
<path d="" fill="#000000" transform="translate(0,0)"/>
<path d="" fill="#000000" transform="translate(0,0)"/>
<path d="" fill="#000000" transform="translate(0,0)"/>
<path d="" fill="#000000" transform="translate(0,0)"/>
<path d="" fill="#000000" transform="translate(0,0)"/>
<path d="" fill="#000000" transform="translate(0,0)"/>
<path d="" fill="#000000" transform="translate(0,0)"/>
<path d="" fill="#FF0000" transform="translate(0,0)"/>
<path d="" fill="#000000" transform="translate(0,0)"/>
<path d="" fill="#000000" transform="translate(0,0)"/>
<path d="" fill="#000000" transform="translate(0,0)"/>
<path d="" fill="#000000" transform="translate(0,0)"/>
<path d="" fill="#000000" transform="translate(0,0)"/>
<path d="" fill="#FFFF00" transform="translate(0,0)"/>
<path d="" fill="#000000" transform="translate(0,0)"/>
<path d="" fill="#000000" transform="translate(0,0)"/>
<path d="" fill="#FFFF00" transform="translate(0,0)"/>
<path d="" fill="#FFFF00" transform="translate(0,0)"/>
<path d="" fill="#000000" transform="translate(0,0)"/>
<path d="" fill="#000000" transform="translate(0,0)"/>
<path d="" fill="#FFFF00" transform="translate(0,0)"/>
<path d="" fill="#000000" transform="translate(0,0)"/>
<path d="" fill="#FFFF00" transform="translate(0,0)"/>
<path d="" fill="#000000" transform="translate(0,0)"/>
<path d="" fill="#000000" transform="translate(0,0)"/>
<path d="" fill="#000000" transform="translate(0,0)"/>
<path d="" fill="#000000" transform="translate(0,0)"/>
<path d="" fill="#000000" transform="translate(0,0)"/>
<path d="" fill="#000000" transform="translate(0,0)"/>
<path d="" fill="#000000" transform="translate(0,0)"/>
<path d="" fill="#000000" transform="translate(0,0)"/>
<path d="" fill="#000000" transform="translate(0,0)"/>
<path d="" fill="#000000" transform="translate(0,0)"/>
<path d="" fill="#000000" transform="translate(0,0)"/>
<path d="" fill="#000000" transform="translate(0,0)"/>
<path d="" fill="#000000" transform="translate(0,0)"/>
<path d="" fill="#000000" transform="translate(0,0)"/>
<path d="" fill="#000000" transform="translate(0,0)"/>
<path d="" fill="#000000" transform="translate(0,0)"/>
<path d="" fill="#000000" transform="translate(0,0)"/>
<path d="" fill="#000000" transform="translate(0,0)"/>
<path d="" fill="#000000" transform="translate(0,0)"/>
<path d="" fill="#000000" transform="translate(0,0)"/>
<path d="" fill="#000000" transform="translate(0,0)"/>
<path d="" fill="#000000" transform="translate(0,0)"/>
<path d="" fill="#000000" transform="translate(0,0)"/>
<path d="" fill="#000000" transform="translate(0,0)"/>
<path d="" fill="#000000" transform="translate(0,0)"/>
<path d="" fill="#000000" transform="translate(0,0)"/>
<path d="" fill="#000000" transform="translate(0,0)"/>
<path d="" fill="#000000" transform="translate(0,0)"/>
<path d="" fill="#000000" transform="translate(0,0)"/>
<path d="" fill="#000000" transform="translate(0,0)"/>
<path d="" fill="#000000" transform="translate(0,0)"/>
<path d="" fill="#000000" transform="translate(0,0)"/>
<path d="" fill="#000000" transform="translate(0,0)"/>
<path d="" fill="#000000" transform="translate(0,0)"/>
<path d="" fill="#000000" transform="translate(0,0)"/>
<path d="" fill="#000000" transform="translate(0,0)"/>
<path d="" fill="#000000" transform="translate(0,0)"/>
<path d="" fill="#000000" transform="translate(0,0)"/>
<path d="" fill="#000000" transform="translate(0,0)"/>
<path d="" fill="#000000" transform="translate(0,0)"/>
<path d="" fill="#000000" transform="translate(0,0)"/>
<path d="" fill="#000000" transform="translate(0,0)"/>
<path d="" fill="#000000" transform="translate(0,0)"/>
<path d="" fill="#550000" transform="translate(0,0)"/>
<path d="" fill="#000000" transform="translate(0,0)"/>
<path d="" fill="#000000" transform="translate(0,0)"/>
<path d="" fill="#000000" transform="translate(0,0)"/>
<path d="" fill="#000000" transform="translate(0,0)"/>
<path d="" fill="#000000" transform="translate(0,0)"/>
<path d="" fill="#000000" transform="translate(0,0)"/>
<path d="" fill="#000000" transform="translate(0,0)"/>
<path d="" fill="#000000" transform="translate(0,0)"/>
<path d="" fill="#000000" transform="translate(0,0)"/>
<path d="" fill="#000000" transform="translate(0,0)"/>
<path d="" fill="#000000" transform="translate(0,0)"/>
<path d="" fill="#000000" transform="translate(0,0)"/>
<path d="" fill="#000000" transform="translate(0,0)"/>
<path d="" fill="#000000" transform="translate(0,0)"/>
<path d="" fill="#000000" transform="translate(0,0)"/>
<path d="" fill="#000000" transform="translate(0,0)"/>
<path d="" fill="#000000" transform="translate(0,0)"/>
<path d="" fill="#000000" transform="translate(0,0)"/>
<path d="" fill="#000000" transform="translate(0,0)"/>
<path d="" fill="#FF0000" transform="translate(0,0)"/>
<path d="" fill="#555500" transform="translate(0,0)"/>
<path d="" fill="#555500" transform="translate(0,0)"/>
<path d="" fill="#FFFF00" transform="translate(0,0)"/>
<path d="" fill="#000000" transform="translate(0,0)"/>
<path d="" fill="#000000" transform="translate(0,0)"/>
<path d="" fill="#000000" transform="translate(0,0)"/>
<path d="" fill="#000000" transform="translate(0,0)"/>
<path d="" fill="#000000" transform="translate(0,0)"/>
<path d="" fill="#000000" transform="translate(0,0)"/>
<path d="" fill="#000000" transform="translate(0,0)"/>
<path d="" fill="#000000" transform="translate(0,0)"/>
<path d="" fill="#000000" transform="translate(0,0)"/>
<path d="" fill="#000000" transform="translate(0,0)"/>
<path d="" fill="#000000" transform="translate(0,0)"/>
<path d="" fill="#FF0000" transform="translate(0,0)"/>
<path d="" fill="#000000" transform="translate(0,0)"/>
<path d="" fill="#000000" transform="translate(0,0)"/>
<path d="" fill="#000000" transform="translate(0,0)"/>
<path d="" fill="#D47F2A" transform="translate(0,0)"/>
<path d="" fill="#000000" transform="translate(0,0)"/>
<path d="" fill="#000000" transform="translate(0,0)"/>
<path d="" fill="#000000" transform="translate(0,0)"/>
<path d="" fill="#000000" transform="translate(0,0)"/>
<path d="" fill="#000000" transform="translate(0,0)"/>
<path d="" fill="#FF0000" transform="translate(0,0)"/>
<path d="" fill="#000000" transform="translate(0,0)"/>
<path d="" fill="#000000" transform="translate(0,0)"/>
<path d="" fill="#000000" transform="translate(0,0)"/>
<path d="" fill="#000000" transform="translate(0,0)"/>
<path d="" fill="#FFFF00" transform="translate(0,0)"/>
<path d="" fill="#000000" transform="translate(0,0)"/>
<path d="" fill="#000000" transform="translate(0,0)"/>
<path d="" fill="#000000" transform="translate(0,0)"/>
<path d="" fill="#7F0000" transform="translate(0,0)"/>
<path d="" fill="#000000" transform="translate(0,0)"/>
<path d="" fill="#000000" transform="translate(0,0)"/>
<path d="" fill="#FF0000" transform="translate(0,0)"/>
<path d="" fill="#000000" transform="translate(0,0)"/>
<path d="" fill="#000000" transform="translate(0,0)"/>
<path d="" fill="#000000" transform="translate(0,0)"/>
<path d="" fill="#000000" transform="translate(0,0)"/>
<path d="" fill="#000000" transform="translate(0,0)"/>
<path d="" fill="#FFFF00" transform="translate(0,0)"/>
<path d="" fill="#FF0000" transform="translate(0,0)"/>
<path d="" fill="#000000" transform="translate(0,0)"/>
<path d="" fill="#000000" transform="translate(0,0)"/>
<path d="" fill="#000000" transform="translate(0,0)"/>
<path d="" fill="#000000" transform="translate(0,0)"/>
<path d="" fill="#000000" transform="translate(0,0)"/>
<path d="" fill="#000000" transform="translate(0,0)"/>
<path d="" fill="#000000" transform="translate(0,0)"/>
<path d="" fill="#000000" transform="translate(0,0)"/>
<path d="" fill="#000000" transform="translate(0,0)"/>
<path d="" fill="#AA5555" transform="translate(0,0)"/>
<path d="" fill="#000000" transform="translate(0,0)"/>
<path d="" fill="#000000" transform="translate(0,0)"/>
<path d="" fill="#000000" transform="translate(0,0)"/>
<path d="" fill="#000000" transform="translate(0,0)"/>
<path d="" fill="#000000" transform="translate(0,0)"/>
<path d="" fill="#000000" transform="translate(0,0)"/>
<path d="" fill="#FFFF00" transform="translate(0,0)"/>
<path d="" fill="#000000" transform="translate(0,0)"/>
<path d="" fill="#FF0000" transform="translate(0,0)"/>
<path d="" fill="#FFFF00" transform="translate(0,0)"/>
<path d="" fill="#000000" transform="translate(0,0)"/>
<path d="" fill="#000000" transform="translate(0,0)"/>
<path d="" fill="#000000" transform="translate(0,0)"/>
<path d="" fill="#000000" transform="translate(0,0)"/>
<path d="" fill="#000000" transform="translate(0,0)"/>
<path d="" fill="#FF7F00" transform="translate(0,0)"/>
<path d="" fill="#000000" transform="translate(0,0)"/>
<path d="" fill="#000000" transform="translate(0,0)"/>
<path d="" fill="#000000" transform="translate(0,0)"/>
<path d="" fill="#000000" transform="translate(0,0)"/>
<path d="" fill="#FF0000" transform="translate(0,0)"/>
<path d="" fill="#FF0000" transform="translate(0,0)"/>
<path d="" fill="#000000" transform="translate(0,0)"/>
<path d="" fill="#000000" transform="translate(0,0)"/>
<path d="" fill="#000000" transform="translate(0,0)"/>
<path d="" fill="#FF0000" transform="translate(0,0)"/>
<path d="" fill="#FF0000" transform="translate(0,0)"/>
<path d="" fill="#000000" transform="translate(0,0)"/>
<path d="" fill="#000000" transform="translate(0,0)"/>
<path d="" fill="#000000" transform="translate(0,0)"/>
<path d="" fill="#FF0000" transform="translate(0,0)"/>
<path d="" fill="#000000" transform="translate(0,0)"/>
<path d="" fill="#FFFF00" transform="translate(0,0)"/>
<path d="" fill="#000000" transform="translate(0,0)"/>
<path d="" fill="#000000" transform="translate(0,0)"/>
<path d="" fill="#000000" transform="translate(0,0)"/>
<path d="" fill="#000000" transform="translate(0,0)"/>
<path d="" fill="#000000" transform="translate(0,0)"/>
<path d="" fill="#000000" transform="translate(0,0)"/>
<path d="" fill="#000000" transform="translate(0,0)"/>
<path d="" fill="#000000" transform="translate(0,0)"/>
<path d="" fill="#FFFF00" transform="translate(0,0)"/>
<path d="" fill="#000000" transform="translate(0,0)"/>
<path d="" fill="#000000" transform="translate(0,0)"/>
<path d="" fill="#000000" transform="translate(0,0)"/>
<path d="" fill="#FFFF00" transform="translate(0,0)"/>
<path d="" fill="#000000" transform="translate(0,0)"/>
<path d="" fill="#000000" transform="translate(0,0)"/>
<path d="" fill="#FFFF00" transform="translate(0,0)"/>
<path d="" fill="#000000" transform="translate(0,0)"/>
<path d="" fill="#000000" transform="translate(0,0)"/>
<path d="" fill="#000000" transform="translate(0,0)"/>
<path d="" fill="#FF0000" transform="translate(0,0)"/>
<path d="" fill="#000000" transform="translate(0,0)"/>
<path d="" fill="#000000" transform="translate(0,0)"/>
<path d="" fill="#FF7F00" transform="translate(0,0)"/>
<path d="" fill="#000000" transform="translate(0,0)"/>
<path d="" fill="#000000" transform="translate(0,0)"/>
<path d="" fill="#000000" transform="translate(0,0)"/>
<path d="" fill="#FFFF00" transform="translate(0,0)"/>
<path d="" fill="#FFFF00" transform="translate(0,0)"/>
<path d="" fill="#000000" transform="translate(0,0)"/>
<path d="" fill="#000000" transform="translate(0,0)"/>
<path d="" fill="#000000" transform="translate(0,0)"/>
<path d="" fill="#000000" transform="translate(0,0)"/>
<path d="" fill="#000000" transform="translate(0,0)"/>
<path d="" fill="#000000" transform="translate(0,0)"/>
<path d="" fill="#FF7F00" transform="translate(0,0)"/>
<path d="" fill="#000000" transform="translate(0,0)"/>
<path d="" fill="#000000" transform="translate(0,0)"/>
<path d="" fill="#000000" transform="translate(0,0)"/>
<path d="" fill="#000000" transform="translate(0,0)"/>
<path d="" fill="#000000" transform="translate(0,0)"/>
<path d="" fill="#000000" transform="translate(0,0)"/>
<path d="" fill="#000000" transform="translate(0,0)"/>
<path d="" fill="#000000" transform="translate(0,0)"/>
<path d="" fill="#000000" transform="translate(0,0)"/>
<path d="" fill="#000000" transform="translate(0,0)"/>
<path d="" fill="#000000" transform="translate(0,0)"/>
<path d="" fill="#000000" transform="translate(0,0)"/>
<path d="" fill="#000000" transform="translate(0,0)"/>
<path d="" fill="#000000" transform="translate(0,0)"/>
<path d="" fill="#000000" transform="translate(0,0)"/>
<path d="" fill="#000000" transform="translate(0,0)"/>
<path d="" fill="#000000" transform="translate(0,0)"/>
<path d="" fill="#000000" transform="translate(0,0)"/>
<path d="" fill="#000000" transform="translate(0,0)"/>
<path d="" fill="#000000" transform="translate(0,0)"/>
<path d="" fill="#000000" transform="translate(0,0)"/>
<path d="" fill="#000000" transform="translate(0,0)"/>
<path d="" fill="#000000" transform="translate(0,0)"/>
<path d="" fill="#000000" transform="translate(0,0)"/>
<path d="" fill="#000000" transform="translate(0,0)"/>
<path d="" fill="#000000" transform="translate(0,0)"/>
<path d="" fill="#000000" transform="translate(0,0)"/>
<path d="" fill="#000000" transform="translate(0,0)"/>
<path d="" fill="#000000" transform="translate(0,0)"/>
<path d="" fill="#000000" transform="translate(0,0)"/>
<path d="" fill="#000000" transform="translate(0,0)"/>
<path d="" fill="#000000" transform="translate(0,0)"/>
<path d="" fill="#000000" transform="translate(0,0)"/>
<path d="" fill="#000000" transform="translate(0,0)"/>
<path d="" fill="#000000" transform="translate(0,0)"/>
<path d="" fill="#000000" transform="translate(0,0)"/>
<path d="" fill="#000000" transform="translate(0,0)"/>
<path d="" fill="#000000" transform="translate(0,0)"/>
<path d="" fill="#000000" transform="translate(0,0)"/>
<path d="" fill="#000000" transform="translate(0,0)"/>
<path d="" fill="#000000" transform="translate(0,0)"/>
<path d="" fill="#000000" transform="translate(0,0)"/>
<path d="" fill="#000000" transform="translate(0,0)"/>
<path d="" fill="#000000" transform="translate(0,0)"/>
<path d="" fill="#000000" transform="translate(0,0)"/>
<path d="" fill="#000000" transform="translate(0,0)"/>
<path d="" fill="#000000" transform="translate(0,0)"/>
<path d="" fill="#000000" transform="translate(0,0)"/>
<path d="" fill="#000000" transform="translate(0,0)"/>
<path d="" fill="#000000" transform="translate(0,0)"/>
<path d="" fill="#000000" transform="translate(0,0)"/>
<path d="" fill="#000000" transform="translate(0,0)"/>
<path d="" fill="#FFAA55" transform="translate(0,0)"/>
<path d="" fill="#000000" transform="translate(0,0)"/>
<path d="" fill="#000000" transform="translate(0,0)"/>
<path d="" fill="#000000" transform="translate(0,0)"/>
<path d="" fill="#000000" transform="translate(0,0)"/>
<path d="" fill="#000000" transform="translate(0,0)"/>
<path d="" fill="#000000" transform="translate(0,0)"/>
<path d="" fill="#000000" transform="translate(0,0)"/>
<path d="" fill="#000000" transform="translate(0,0)"/>
<path d="" fill="#000000" transform="translate(0,0)"/>
<path d="" fill="#FF7F00" transform="translate(0,0)"/>
<path d="" fill="#000000" transform="translate(0,0)"/>
<path d="" fill="#000000" transform="translate(0,0)"/>
<path d="" fill="#000000" transform="translate(0,0)"/>
<path d="" fill="#000000" transform="translate(0,0)"/>
<path d="" fill="#000000" transform="translate(0,0)"/>
<path d="" fill="#000000" transform="translate(0,0)"/>
<path d="" fill="#000000" transform="translate(0,0)"/>
<path d="" fill="#000000" transform="translate(0,0)"/>
<path d="" fill="#000000" transform="translate(0,0)"/>
<path d="" fill="#000000" transform="translate(0,0)"/>
<path d="" fill="#000000" transform="translate(0,0)"/>
<path d="" fill="#000000" transform="translate(0,0)"/>
<path d="" fill="#000000" transform="translate(0,0)"/>
<path d="" fill="#000000" transform="translate(0,0)"/>
<path d="" fill="#000000" transform="translate(0,0)"/>
<path d="" fill="#000000" transform="translate(0,0)"/>
<path d="" fill="#000000" transform="translate(0,0)"/>
<path d="" fill="#000000" transform="translate(0,0)"/>
<path d="" fill="#000000" transform="translate(0,0)"/>
<path d="" fill="#000000" transform="translate(0,0)"/>
<path d="" fill="#000000" transform="translate(0,0)"/>
<path d="" fill="#000000" transform="translate(0,0)"/>
<path d="" fill="#000000" transform="translate(0,0)"/>
<path d="" fill="#000000" transform="translate(0,0)"/>
<path d="" fill="#000000" transform="translate(0,0)"/>
<path d="" fill="#000000" transform="translate(0,0)"/>
<path d="" fill="#000000" transform="translate(0,0)"/>
<path d="" fill="#000000" transform="translate(0,0)"/>
<path d="" fill="#000000" transform="translate(0,0)"/>
<path d="" fill="#000000" transform="translate(0,0)"/>
<path d="" fill="#000000" transform="translate(0,0)"/>
<path d="" fill="#000000" transform="translate(0,0)"/>
<path d="" fill="#FF7F3F" transform="translate(0,0)"/>
<path d="" fill="#000000" transform="translate(0,0)"/>
<path d="" fill="#000000" transform="translate(0,0)"/>
<path d="" fill="#000000" transform="translate(0,0)"/>
<path d="" fill="#000000" transform="translate(0,0)"/>
<path d="" fill="#000000" transform="translate(0,0)"/>
<path d="" fill="#000000" transform="translate(0,0)"/>
<path d="" fill="#000000" transform="translate(0,0)"/>
<path d="" fill="#FF0000" transform="translate(0,0)"/>
<path d="" fill="#000000" transform="translate(0,0)"/>
<path d="" fill="#000000" transform="translate(0,0)"/>
<path d="" fill="#000000" transform="translate(0,0)"/>
<path d="" fill="#000000" transform="translate(0,0)"/>
<path d="" fill="#000000" transform="translate(0,0)"/>
<path d="" fill="#000000" transform="translate(0,0)"/>
<path d="" fill="#000000" transform="translate(0,0)"/>
<path d="" fill="#000000" transform="translate(0,0)"/>
<path d="" fill="#000000" transform="translate(0,0)"/>
<path d="" fill="#FF0000" transform="translate(0,0)"/>
<path d="" fill="#000000" transform="translate(0,0)"/>
<path d="" fill="#000000" transform="translate(0,0)"/>
<path d="" fill="#333300" transform="translate(0,0)"/>
<path d="" fill="#000000" transform="translate(0,0)"/>
<path d="" fill="#000000" transform="translate(0,0)"/>
<path d="" fill="#000000" transform="translate(0,0)"/>
<path d="" fill="#000000" transform="translate(0,0)"/>
<path d="" fill="#000000" transform="translate(0,0)"/>
<path d="" fill="#000000" transform="translate(0,0)"/>
<path d="" fill="#000000" transform="translate(0,0)"/>
<path d="" fill="#FF7F00" transform="translate(0,0)"/>
<path d="" fill="#000000" transform="translate(0,0)"/>
<path d="" fill="#FF0000" transform="translate(0,0)"/>
<path d="" fill="#000000" transform="translate(0,0)"/>
<path d="" fill="#000000" transform="translate(0,0)"/>
<path d="" fill="#000000" transform="translate(0,0)"/>
<path d="" fill="#000000" transform="translate(0,0)"/>
<path d="" fill="#000000" transform="translate(0,0)"/>
<path d="" fill="#FF0000" transform="translate(0,0)"/>
<path d="" fill="#000000" transform="translate(0,0)"/>
<path d="" fill="#000000" transform="translate(0,0)"/>
<path d="" fill="#000000" transform="translate(0,0)"/>
<path d="" fill="#000000" transform="translate(0,0)"/>
<path d="" fill="#FF7F00" transform="translate(0,0)"/>
<path d="" fill="#7F0000" transform="translate(0,0)"/>
<path d="" fill="#FFFF00" transform="translate(0,0)"/>
<path d="" fill="#000000" transform="translate(0,0)"/>
<path d="" fill="#000000" transform="translate(0,0)"/>
<path d="" fill="#FFFF00" transform="translate(0,0)"/>
<path d="" fill="#000000" transform="translate(0,0)"/>
<path d="" fill="#000000" transform="translate(0,0)"/>
<path d="" fill="#000000" transform="translate(0,0)"/>
<path d="" fill="#000000" transform="translate(0,0)"/>
<path d="" fill="#000000" transform="translate(0,0)"/>
<path d="" fill="#FF0000" transform="translate(0,0)"/>
<path d="" fill="#FF0000" transform="translate(0,0)"/>
<path d="" fill="#000000" transform="translate(0,0)"/>
<path d="" fill="#000000" transform="translate(0,0)"/>
<path d="" fill="#000000" transform="translate(0,0)"/>
<path d="" fill="#FF0000" transform="translate(0,0)"/>
<path d="" fill="#FFFF00" transform="translate(0,0)"/>
<path d="" fill="#000000" transform="translate(0,0)"/>
<path d="" fill="#000000" transform="translate(0,0)"/>
<path d="" fill="#000000" transform="translate(0,0)"/>
<path d="" fill="#000000" transform="translate(0,0)"/>
<path d="" fill="#000000" transform="translate(0,0)"/>
<path d="" fill="#000000" transform="translate(0,0)"/>
<path d="" fill="#000000" transform="translate(0,0)"/>
<path d="" fill="#7F7F00" transform="translate(0,0)"/>
<path d="" fill="#000000" transform="translate(0,0)"/>
<path d="" fill="#000000" transform="translate(0,0)"/>
<path d="" fill="#000000" transform="translate(0,0)"/>
<path d="" fill="#000000" transform="translate(0,0)"/>
<path d="" fill="#7F7F00" transform="translate(0,0)"/>
<path d="" fill="#000000" transform="translate(0,0)"/>
<path d="" fill="#000000" transform="translate(0,0)"/>
<path d="" fill="#000000" transform="translate(0,0)"/>
<path d="" fill="#000000" transform="translate(0,0)"/>
<path d="" fill="#000000" transform="translate(0,0)"/>
<path d="" fill="#000000" transform="translate(0,0)"/>
<path d="" fill="#000000" transform="translate(0,0)"/>
<path d="" fill="#000000" transform="translate(0,0)"/>
<path d="" fill="#000000" transform="translate(0,0)"/>
<path d="" fill="#000000" transform="translate(0,0)"/>
<path d="" fill="#000000" transform="translate(0,0)"/>
<path d="" fill="#000000" transform="translate(0,0)"/>
<path d="" fill="#000000" transform="translate(0,0)"/>
<path d="" fill="#7F0000" transform="translate(0,0)"/>
<path d="" fill="#FF0000" transform="translate(0,0)"/>
<path d="" fill="#663300" transform="translate(0,0)"/>
<path d="" fill="#000000" transform="translate(0,0)"/>
<path d="" fill="#000000" transform="translate(0,0)"/>
<path d="" fill="#000000" transform="translate(0,0)"/>
<path d="" fill="#000000" transform="translate(0,0)"/>
<path d="" fill="#000000" transform="translate(0,0)"/>
<path d="" fill="#000000" transform="translate(0,0)"/>
<path d="" fill="#000000" transform="translate(0,0)"/>
<path d="" fill="#000000" transform="translate(0,0)"/>
<path d="" fill="#7F0000" transform="translate(0,0)"/>
<path d="" fill="#000000" transform="translate(0,0)"/>
<path d="" fill="#AA5555" transform="translate(0,0)"/>
<path d="" fill="#000000" transform="translate(0,0)"/>
<path d="" fill="#FFFF00" transform="translate(0,0)"/>
<path d="" fill="#000000" transform="translate(0,0)"/>
<path d="" fill="#555500" transform="translate(0,0)"/>
<path d="" fill="#000000" transform="translate(0,0)"/>
<path d="" fill="#FFFF00" transform="translate(0,0)"/>
<path d="" fill="#000000" transform="translate(0,0)"/>
<path d="" fill="#FFFF00" transform="translate(0,0)"/>
<path d="" fill="#000000" transform="translate(0,0)"/>
<path d="" fill="#000000" transform="translate(0,0)"/>
<path d="" fill="#FF0000" transform="translate(0,0)"/>
<path d="" fill="#000000" transform="translate(0,0)"/>
<path d="" fill="#000000" transform="translate(0,0)"/>
<path d="" fill="#000000" transform="translate(0,0)"/>
<path d="" fill="#000000" transform="translate(0,0)"/>
<path d="" fill="#000000" transform="translate(0,0)"/>
<path d="" fill="#000000" transform="translate(0,0)"/>
<path d="" fill="#7F7F00" transform="translate(0,0)"/>
<path d="" fill="#000000" transform="translate(0,0)"/>
<path d="" fill="#000000" transform="translate(0,0)"/>
<path d="" fill="#000000" transform="translate(0,0)"/>
<path d="" fill="#000000" transform="translate(0,0)"/>
<path d="" fill="#000000" transform="translate(0,0)"/>
<path d="" fill="#000000" transform="translate(0,0)"/>
<path d="" fill="#000000" transform="translate(0,0)"/>
<path d="" fill="#7F7F00" transform="translate(0,0)"/>
<path d="" fill="#000000" transform="translate(0,0)"/>
<path d="" fill="#000000" transform="translate(0,0)"/>
<path d="" fill="#FF0000" transform="translate(0,0)"/>
<path d="" fill="#FF0000" transform="translate(0,0)"/>
<path d="" fill="#FFFF00" transform="translate(0,0)"/>
<path d="" fill="#000000" transform="translate(0,0)"/>
<path d="" fill="#000000" transform="translate(0,0)"/>
<path d="" fill="#000000" transform="translate(0,0)"/>
<path d="" fill="#AA5555" transform="translate(0,0)"/>
<path d="" fill="#000000" transform="translate(0,0)"/>
<path d="" fill="#000000" transform="translate(0,0)"/>
<path d="" fill="#000000" transform="translate(0,0)"/>
<path d="" fill="#000000" transform="translate(0,0)"/>
<path d="" fill="#000000" transform="translate(0,0)"/>
<path d="" fill="#FF0000" transform="translate(0,0)"/>
<path d="" fill="#000000" transform="translate(0,0)"/>
<path d="" fill="#000000" transform="translate(0,0)"/>
<path d="" fill="#000000" transform="translate(0,0)"/>
<path d="" fill="#FFFF00" transform="translate(0,0)"/>
<path d="" fill="#000000" transform="translate(0,0)"/>
<path d="" fill="#000000" transform="translate(0,0)"/>
<path d="" fill="#AA5555" transform="translate(0,0)"/>
<path d="" fill="#FF7F00" transform="translate(0,0)"/>
<path d="" fill="#FFFF00" transform="translate(0,0)"/>
<path d="" fill="#000000" transform="translate(0,0)"/>
<path d="" fill="#000000" transform="translate(0,0)"/>
<path d="" fill="#FF7F7F" transform="translate(0,0)"/>
<path d="" fill="#000000" transform="translate(0,0)"/>
<path d="" fill="#000000" transform="translate(0,0)"/>
<path d="" fill="#000000" transform="translate(0,0)"/>
<path d="" fill="#AA5555" transform="translate(0,0)"/>
<path d="" fill="#000000" transform="translate(0,0)"/>
<path d="" fill="#000000" transform="translate(0,0)"/>
<path d="" fill="#000000" transform="translate(0,0)"/>
<path d="" fill="#FF0000" transform="translate(0,0)"/>
<path d="" fill="#FFFF00" transform="translate(0,0)"/>
<path d="" fill="#FFFF00" transform="translate(0,0)"/>
<path d="" fill="#000000" transform="translate(0,0)"/>
<path d="" fill="#FFAA55" transform="translate(0,0)"/>
<path d="" fill="#FFAA55" transform="translate(0,0)"/>
<path d="" fill="#000000" transform="translate(0,0)"/>
<path d="" fill="#FF7F00" transform="translate(0,0)"/>
<path d="" fill="#000000" transform="translate(0,0)"/>
<path d="" fill="#000000" transform="translate(0,0)"/>
<path d="" fill="#FFFF00" transform="translate(0,0)"/>
<path d="" fill="#000000" transform="translate(0,0)"/>
<path d="" fill="#FF7F00" transform="translate(0,0)"/>
<path d="" fill="#FFFF00" transform="translate(0,0)"/>
<path d="" fill="#000000" transform="translate(0,0)"/>
<path d="" fill="#000000" transform="translate(0,0)"/>
<path d="" fill="#FF0000" transform="translate(0,0)"/>
<path d="" fill="#000000" transform="translate(0,0)"/>
<path d="" fill="#000000" transform="translate(0,0)"/>
<path d="" fill="#000000" transform="translate(0,0)"/>
<path d="" fill="#000000" transform="translate(0,0)"/>
<path d="" fill="#000000" transform="translate(0,0)"/>
<path d="" fill="#000000" transform="translate(0,0)"/>
<path d="" fill="#000000" transform="translate(0,0)"/>
<path d="" fill="#FF7F00" transform="translate(0,0)"/>
<path d="" fill="#FFFF00" transform="translate(0,0)"/>
<path d="" fill="#000000" transform="translate(0,0)"/>
<path d="" fill="#000000" transform="translate(0,0)"/>
<path d="" fill="#FF0000" transform="translate(0,0)"/>
<path d="" fill="#000000" transform="translate(0,0)"/>
<path d="" fill="#FFFF00" transform="translate(0,0)"/>
<path d="" fill="#FF7F00" transform="translate(0,0)"/>
<path d="" fill="#000000" transform="translate(0,0)"/>
<path d="" fill="#FF7F00" transform="translate(0,0)"/>
<path d="" fill="#FFAA55" transform="translate(0,0)"/>
<path d="" fill="#FFFF00" transform="translate(0,0)"/>
<path d="" fill="#000000" transform="translate(0,0)"/>
<path d="" fill="#000000" transform="translate(0,0)"/>
<path d="" fill="#FFAA55" transform="translate(0,0)"/>
<path d="" fill="#000000" transform="translate(0,0)"/>
<path d="" fill="#000000" transform="translate(0,0)"/>
<path d="" fill="#FF7F00" transform="translate(0,0)"/>
<path d="" fill="#000000" transform="translate(0,0)"/>
<path d="" fill="#000000" transform="translate(0,0)"/>
<path d="" fill="#000000" transform="translate(0,0)"/>
<path d="" fill="#FF7F00" transform="translate(0,0)"/>
<path d="" fill="#FFFF00" transform="translate(0,0)"/>
<path d="" fill="#000000" transform="translate(0,0)"/>
<path d="" fill="#000000" transform="translate(0,0)"/>
<path d="" fill="#FF7F00" transform="translate(0,0)"/>
<path d="" fill="#000000" transform="translate(0,0)"/>
<path d="" fill="#000000" transform="translate(0,0)"/>
<path d="" fill="#FFFF00" transform="translate(0,0)"/>
<path d="" fill="#000000" transform="translate(0,0)"/>
<path d="" fill="#000000" transform="translate(0,0)"/>
<path d="" fill="#FFFF00" transform="translate(0,0)"/>
<path d="" fill="#000000" transform="translate(0,0)"/>
<path d="" fill="#FFFF00" transform="translate(0,0)"/>
<path d="" fill="#000000" transform="translate(0,0)"/>
<path d="" fill="#FF7F00" transform="translate(0,0)"/>
<path d="" fill="#000000" transform="translate(0,0)"/>
<path d="" fill="#000000" transform="translate(0,0)"/>
<path d="" fill="#FFFF00" transform="translate(0,0)"/>
<path d="" fill="#000000" transform="translate(0,0)"/>
<path d="" fill="#FF7F00" transform="translate(0,0)"/>
<path d="" fill="#000000" transform="translate(0,0)"/>
<path d="" fill="#000000" transform="translate(0,0)"/>
<path d="" fill="#FF7F00" transform="translate(0,0)"/>
<path d="" fill="#000000" transform="translate(0,0)"/>
<path d="" fill="#000000" transform="translate(0,0)"/>
<path d="" fill="#FFFF00" transform="translate(0,0)"/>
<path d="" fill="#000000" transform="translate(0,0)"/>
<path d="" fill="#000000" transform="translate(0,0)"/>
<path d="" fill="#FFFF00" transform="translate(0,0)"/>
<path d="" fill="#000000" transform="translate(0,0)"/>
<path d="" fill="#000000" transform="translate(0,0)"/>
<path d="" fill="#000000" transform="translate(0,0)"/>
<path d="" fill="#FF7F00" transform="translate(0,0)"/>
<path d="" fill="#000000" transform="translate(0,0)"/>
<path d="" fill="#000000" transform="translate(0,0)"/>
<path d="" fill="#000000" transform="translate(0,0)"/>
<path d="" fill="#FF7F00" transform="translate(0,0)"/>
<path d="" fill="#FFFF00" transform="translate(0,0)"/>
<path d="" fill="#FF7F00" transform="translate(0,0)"/>
<path d="" fill="#000000" transform="translate(0,0)"/>
<path d="" fill="#000000" transform="translate(0,0)"/>
<path d="" fill="#FFFF00" transform="translate(0,0)"/>
<path d="" fill="#000000" transform="translate(0,0)"/>
<path d="" fill="#000000" transform="translate(0,0)"/>
<path d="" fill="#000000" transform="translate(0,0)"/>
<path d="" fill="#000000" transform="translate(0,0)"/>
<path d="" fill="#FFFF00" transform="translate(0,0)"/>
<path d="" fill="#000000" transform="translate(0,0)"/>
<path d="" fill="#FFFF00" transform="translate(0,0)"/>
<path d="" fill="#FFFF00" transform="translate(0,0)"/>
<path d="" fill="#000000" transform="translate(0,0)"/>
<path d="" fill="#000000" transform="translate(0,0)"/>
<path d="" fill="#000000" transform="translate(0,0)"/>
<path d="" fill="#FFFF00" transform="translate(0,0)"/>
<path d="" fill="#000000" transform="translate(0,0)"/>
<path d="" fill="#000000" transform="translate(0,0)"/>
<path d="" fill="#FFFF00" transform="translate(0,0)"/>
<path d="" fill="#000000" transform="translate(0,0)"/>
<path d="" fill="#000000" transform="translate(0,0)"/>
<path d="" fill="#FF7F00" transform="translate(0,0)"/>
<path d="" fill="#FF7F00" transform="translate(0,0)"/>
<path d="" fill="#000000" transform="translate(0,0)"/>
<path d="" fill="#000000" transform="translate(0,0)"/>
<path d="" fill="#000000" transform="translate(0,0)"/>
<path d="" fill="#000000" transform="translate(0,0)"/>
<path d="" fill="#FFFF00" transform="translate(0,0)"/>
<path d="" fill="#000000" transform="translate(0,0)"/>
<path d="" fill="#000000" transform="translate(0,0)"/>
<path d="" fill="#000000" transform="translate(0,0)"/>
<path d="" fill="#000000" transform="translate(0,0)"/>
<path d="" fill="#000000" transform="translate(0,0)"/>
<path d="" fill="#000000" transform="translate(0,0)"/>
<path d="" fill="#000000" transform="translate(0,0)"/>
<path d="" fill="#000000" transform="translate(0,0)"/>
<path d="" fill="#000000" transform="translate(0,0)"/>
<path d="" fill="#000000" transform="translate(0,0)"/>
<path d="" fill="#000000" transform="translate(0,0)"/>
<path d="" fill="#000000" transform="translate(0,0)"/>
<path d="" fill="#000000" transform="translate(0,0)"/>
<path d="" fill="#FF7F00" transform="translate(0,0)"/>
<path d="" fill="#000000" transform="translate(0,0)"/>
<path d="" fill="#000000" transform="translate(0,0)"/>
<path d="" fill="#000000" transform="translate(0,0)"/>
<path d="" fill="#000000" transform="translate(0,0)"/>
<path d="" fill="#000000" transform="translate(0,0)"/>
<path d="" fill="#000000" transform="translate(0,0)"/>
<path d="" fill="#FF0000" transform="translate(0,0)"/>
<path d="" fill="#000000" transform="translate(0,0)"/>
<path d="" fill="#FFFF00" transform="translate(0,0)"/>
<path d="" fill="#FF0000" transform="translate(0,0)"/>
<path d="" fill="#000000" transform="translate(0,0)"/>
<path d="" fill="#FF5555" transform="translate(0,0)"/>
<path d="" fill="#FF7F00" transform="translate(0,0)"/>
<path d="" fill="#000000" transform="translate(0,0)"/>
<path d="" fill="#000000" transform="translate(0,0)"/>
<path d="" fill="#000000" transform="translate(0,0)"/>
<path d="" fill="#000000" transform="translate(0,0)"/>
<path d="" fill="#FF7F00" transform="translate(0,0)"/>
<path d="" fill="#FF0000" transform="translate(0,0)"/>
<path d="" fill="#FFFF00" transform="translate(0,0)"/>
<path d="" fill="#000000" transform="translate(0,0)"/>
<path d="" fill="#000000" transform="translate(0,0)"/>
<path d="" fill="#000000" transform="translate(0,0)"/>
<path d="" fill="#FF0000" transform="translate(0,0)"/>
<path d="" fill="#FF0000" transform="translate(0,0)"/>
<path d="" fill="#000000" transform="translate(0,0)"/>
<path d="" fill="#000000" transform="translate(0,0)"/>
<path d="" fill="#FF0000" transform="translate(0,0)"/>
</svg>
