<svg xmlns="http://www.w3.org/2000/svg" width="220" height="220" viewBox="0 0 220 220" fill="none">
  <g stroke="#FFFFFF" stroke-width="2.5" stroke-linecap="round" opacity="0.9">
    <!-- main branch -->
    <path d="M200 20 C 170 55, 150 70, 120 95 C 95 116, 75 130, 40 165 C 25 180, 15 195, 10 210" />
    <!-- side twigs -->
    <path d="M150 60 C 140 45, 132 35, 128 20" />
    <path d="M115 100 C 128 92, 140 88, 155 88" />
    <path d="M80 140 C 68 128, 60 118, 55 102" />
    <path d="M55 165 C 70 160, 82 158, 96 162" />
    <path d="M30 190 C 20 178, 14 168, 12 152" />
  </g>
  <g fill="#FFFFFF" opacity="0.85">
    <!-- leaves along the branch, simple almond shapes -->
    <ellipse cx="128" cy="18" rx="9" ry="16" transform="rotate(35 128 18)"/>
    <ellipse cx="156" cy="86" rx="9" ry="16" transform="rotate(-10 156 86)"/>
    <ellipse cx="140" cy="48" rx="8" ry="14" transform="rotate(60 140 48)"/>
    <ellipse cx="54" cy="100" rx="9" ry="16" transform="rotate(20 54 100)"/>
    <ellipse cx="97" cy="163" rx="9" ry="16" transform="rotate(-25 97 163)"/>
    <ellipse cx="70" cy="150" rx="7" ry="13" transform="rotate(45 70 150)"/>
    <ellipse cx="11" cy="150" rx="8" ry="14" transform="rotate(10 11 150)"/>
    <ellipse cx="105" cy="108" rx="7" ry="13" transform="rotate(80 105 108)"/>
    <ellipse cx="170" cy="35" rx="7" ry="12" transform="rotate(-40 170 35)"/>
  </g>
</svg>
